<svg xmlns="http://www.w3.org/2000/svg" viewBox="0 0 774.79 312.07"><defs><style>.cls-1{fill:#ffc719;}.cls-2{font-size:30px;font-family:Heebo-Regular, Heebo;}.cls-3{fill:#ffc200;}</style></defs><g id="Layer_2" data-name="Layer 2"><g id="Layer_1-2" data-name="Layer 1"><polygon class="cls-1" points="197.51 124.99 175.16 108.94 153.44 108.94 175.79 124.99 197.51 124.99"/><polygon class="cls-1" points="211.23 150.43 232.95 150.43 210.58 134.37 188.86 134.37 211.23 150.43"/><polygon class="cls-1" points="246.66 175.88 268.38 175.88 246.01 159.82 224.29 159.82 246.66 175.88"/><polygon class="cls-1" points="281.43 185.25 259.71 185.25 282.07 201.31 303.8 201.31 281.43 185.25"/><path class="cls-1" d="M69.84,157.25V73.83l64.1-50.95V60.6h-4.16v9.15h4.85V75a8.19,8.19,0,1,0,9.87,8h-3.34a4.86,4.86,0,1,1-4.86-4.86H138V69.75h4.86V60.6h-4.17V19.12l9.7-7.7L148.26,0,69.84,62.33V45l-5.32,4V66.56L60.1,70.08V52.37L47.22,62.09V80.31L38.83,87V68.42L0,97.72V145l38.83-30.88V98.48l8.39-6.67v81.68L8.48,201.31h26.3l102.34-73.49,102.34,73.49h26.3L137.12,108.94ZM20.38,118.44,7.58,128.62V113.05l12.8-9.65ZM60.1,81.57l4.42-3.51v83l-4.42,3.18Z"/><polygon class="cls-1" points="13.98 144.96 38.83 144.96 38.83 125.2 13.98 144.96"/><text class="cls-2" transform="translate(208.79 302) scale(1.56 1)">BUILDERS &amp; DEVELOPERS</text><path class="cls-3" d="M69.79,299.32V281.47a63.05,63.05,0,0,0,10,.72q9.17,0,13.62-2.95t4.44-9V174.39h30.57v95.3q0,15.36-11,22.85T84,300A118.34,118.34,0,0,1,69.79,299.32Z"/><path class="cls-3" d="M160.56,220.61,197,174.74H166.39l-38,51.46v32.53L139.72,244l25.84,55.69h32Z"/><path d="M213.55,265.76a11.67,11.67,0,0,1-5.17-10.16V225.52a11.68,11.68,0,0,1,5.17-10.16q5.17-3.6,15-3.6t15,3.6a11.66,11.66,0,0,1,5.17,10.16v5.92h-13V225q0-5.19-6.85-5.2t-6.85,5.2v31.28c0,3.42,2.28,5.12,6.85,5.12s6.85-1.7,6.85-5.12v-8.56h13v7.92a11.65,11.65,0,0,1-5.17,10.16q-5.16,3.6-15,3.6T213.55,265.76Z"/><path d="M261.57,265.68a11.88,11.88,0,0,1-5.35-10.4V225.84a11.89,11.89,0,0,1,5.35-10.4q5.35-3.67,15.45-3.68t15.45,3.68a11.91,11.91,0,0,1,5.35,10.4v29.44a11.9,11.9,0,0,1-5.35,10.4q-5.37,3.69-15.45,3.68T261.57,265.68Zm22.55-9.84V225.28q0-5.52-7.1-5.52t-7.1,5.52v30.56q0,5.52,7.1,5.52T284.12,255.84Z"/><path d="M307,212.56h17.19l13.33,33.52h.25V212.56H350v56H335.94l-16.45-40.88h-.24v40.88H307Z"/><path d="M363,265.72q-5.12-3.63-5.11-10.44v-3.2h12.95v3.84q0,5.45,7.1,5.44a8.93,8.93,0,0,0,5.3-1.32,4.94,4.94,0,0,0,1.8-4.28,8.85,8.85,0,0,0-2.49-6.2q-2.49-2.67-9.21-6.44-8.47-4.8-11.84-8.68a13,13,0,0,1-3.36-8.76,11.8,11.8,0,0,1,5.23-10.28q5.24-3.63,15.2-3.64t14.88,3.64q5.06,3.65,5.05,10.44v2.32h-13v-2.88a4.93,4.93,0,0,0-1.74-4.2,8.38,8.38,0,0,0-5.11-1.32q-6.86,0-6.85,5.36a8.07,8.07,0,0,0,2.55,5.68q2.56,2.64,9.28,6.4,8.6,4.8,11.84,8.72a14,14,0,0,1,3.24,9.2,12.08,12.08,0,0,1-5.3,10.56q-5.3,3.69-15.38,3.68T363,265.72Z"/><path d="M417.28,220.56H403v-8H445.3v8H431v48h-13.7Z"/><path d="M451.91,212.56h20.3q10.59,0,15.45,3.16t4.85,9.72v3.44q0,8.73-9,11v.16c3.33.64,5.67,1.95,7,3.92a13.68,13.68,0,0,1,2.06,7.92v9.84a23.76,23.76,0,0,0,.25,3.88,7.19,7.19,0,0,0,1.24,2.92H480.18a9.31,9.31,0,0,1-1-2.56,25.78,25.78,0,0,1-.24-4.32V251.44c0-2.56-.65-4.34-1.94-5.36s-3.51-1.52-6.66-1.52h-4.73v24h-13.7Zm18.68,24q4.11,0,6.17-1.36t2.05-4.56v-4.32a5.35,5.35,0,0,0-1.68-4.4c-1.12-.9-2.89-1.36-5.3-1.36h-6.22v16Z"/><path d="M506.84,265.72a11.93,11.93,0,0,1-5.23-10.44V212.56h13.7v43.36a4.75,4.75,0,0,0,1.8,4.16,11.08,11.08,0,0,0,10.34,0,4.73,4.73,0,0,0,1.81-4.16V212.56h13.2v42.72a11.93,11.93,0,0,1-5.23,10.44q-5.24,3.64-15.2,3.64T506.84,265.72Z"/><path d="M556.48,265.76a11.65,11.65,0,0,1-5.17-10.16V225.52a11.66,11.66,0,0,1,5.17-10.16q5.16-3.6,15-3.6t15,3.6a11.67,11.67,0,0,1,5.16,10.16v5.92H578.71V225q0-5.19-6.85-5.2T565,225v31.28c0,3.42,2.28,5.12,6.85,5.12s6.85-1.7,6.85-5.12v-8.56h12.95v7.92a11.66,11.66,0,0,1-5.16,10.16q-5.18,3.6-15,3.6T556.48,265.76Z"/><path d="M610.6,220.56H596.27v-8h42.36v8H624.3v48H610.6Z"/><path d="M645.23,212.56h13.7v56h-13.7Z"/><path d="M673.5,265.68a11.88,11.88,0,0,1-5.35-10.4V225.84a11.89,11.89,0,0,1,5.35-10.4q5.36-3.67,15.45-3.68t15.44,3.68a11.9,11.9,0,0,1,5.36,10.4v29.44a11.89,11.89,0,0,1-5.36,10.4Q699,269.37,689,269.36T673.5,265.68Zm22.55-9.84V225.28q0-5.52-7.1-5.52t-7.1,5.52v30.56q0,5.52,7.1,5.52T696.05,255.84Z"/><path d="M719,212.56h17.19l13.33,33.52h.25V212.56h12.2v56H747.87l-16.45-40.88h-.25v40.88H719Z"/></g></g></svg>