<svg width="56" height="75" viewBox="0 0 56 75" fill="none" xmlns="http://www.w3.org/2000/svg">
<path d="M37.6231 25.1466L31.7351 24.2896L29.1016 18.9406C28.9593 18.6515 28.7258 18.4177 28.4374 18.2749C27.713 17.9163 26.8356 18.2143 26.4779 18.9406L23.8443 24.2896L17.9548 25.1466C17.6359 25.1927 17.3412 25.3428 17.1164 25.574C16.5521 26.1536 16.5636 27.0821 17.142 27.6475L21.4027 31.8104L20.3964 37.6889C20.3824 37.7706 20.3754 37.8535 20.3754 37.9364C20.3754 38.7463 21.0304 39.4029 21.8384 39.4029C22.0761 39.4011 22.3099 39.3413 22.5196 39.2285L27.7866 36.4588L33.0536 39.2285C33.3382 39.3797 33.6648 39.4325 33.9825 39.3789C34.7792 39.244 35.316 38.4875 35.1816 37.6889L34.1753 31.8104L38.436 27.6475C38.6665 27.4222 38.8164 27.1268 38.8625 26.8073C38.9775 26.0055 38.4228 25.2621 37.6231 25.1466ZM31.5791 30.2364C31.2324 30.5745 31.0749 31.0623 31.1581 31.5398L31.7921 35.2498L28.4678 33.4982C28.2573 33.3895 28.0235 33.3336 27.7866 33.3352C27.5489 33.3371 27.3151 33.3968 27.1054 33.5097L23.7811 35.2612L24.4167 31.5513C24.5 31.0737 24.3425 30.5859 23.9957 30.2478L21.3069 27.6197L25.023 27.0788C25.4996 27.0096 25.9117 26.71 26.1252 26.2772L27.7866 22.9014L29.448 26.2772C29.6613 26.71 30.0736 27.0098 30.5502 27.0788L34.2679 27.61L31.5791 30.2364Z" fill="#FFC200"/>
<path d="M27.7866 10.0054C17.2717 10.0054 8.74762 18.5489 8.74762 29.0877C8.74762 39.6264 17.2717 48.1699 27.7866 48.1699C38.2966 48.1582 46.814 39.6216 46.8255 29.0877C46.8255 18.5489 38.3014 10.0054 27.7866 10.0054ZM27.7866 45.2372C18.8877 45.2372 11.6737 38.0068 11.6737 29.0877C11.6737 20.1686 18.8877 12.9381 27.7866 12.9381C36.6815 12.9481 43.8896 20.1727 43.8995 29.0877C43.8995 38.0069 36.6854 45.2372 27.7866 45.2372Z" fill="#FFC200"/>
<path d="M54.5829 33.042L51.8454 34.0799C52.2713 35.2089 52.8013 36.6135 52.6192 37.1756C52.4143 37.8077 51.1741 38.6175 50.0783 39.3327C48.7778 40.1833 47.2985 41.1478 46.2825 42.5489C45.2665 43.9501 44.787 45.6853 44.3756 47.2006C44.0505 48.3917 43.6507 49.8743 43.1321 50.2523C42.6135 50.6302 41.1114 50.5471 39.8809 50.4886C38.309 50.4136 36.5273 50.3256 34.8513 50.8763C33.2258 51.4041 31.8749 52.5055 30.6785 53.4717C29.6527 54.3028 28.4887 55.2445 27.7882 55.2445C27.0877 55.2445 25.9236 54.3028 24.8963 53.4686C23.6999 52.4991 22.3442 51.401 20.7251 50.8748C19.7986 50.5733 18.7598 50.4333 17.4545 50.4333C16.8514 50.4333 16.2613 50.4609 15.6924 50.4887C14.4716 50.5473 12.9532 50.6191 12.451 50.2524C11.9487 49.8859 11.5309 48.3885 11.2058 47.1974C10.7945 45.6805 10.3296 43.9632 9.30054 42.5458C8.27147 41.1283 6.80687 40.1816 5.50308 39.3296C4.40913 38.6144 3.16874 37.8046 2.96385 37.1725C2.78174 36.6137 3.31337 35.2076 3.73932 34.0768C4.30347 32.5827 4.94059 30.8899 4.94059 29.0878C4.94059 27.2858 4.30165 25.593 3.73767 24.0989C3.31171 22.9699 2.78174 21.5637 2.9622 21.0032C3.16709 20.3711 4.40731 19.5613 5.50308 18.8445C6.80357 17.9939 8.28121 17.0294 9.29888 15.6299C10.3166 14.2303 10.7944 12.4935 11.2058 10.9783C11.5309 9.78718 11.9307 8.30453 12.4493 7.92658C12.9679 7.54864 14.47 7.6317 15.6924 7.69028C17.2643 7.76524 19.0477 7.85328 20.7317 7.30258C22.3573 6.77471 23.7065 5.67331 24.9046 4.7071C25.9223 3.87294 27.0862 2.93271 27.7867 2.93271C28.4872 2.93271 29.6514 3.87278 30.677 4.70693C31.8734 5.67629 33.2291 6.77454 34.8499 7.30241C36.5274 7.84815 38.3107 7.76342 39.8892 7.69012C41.1099 7.63303 42.6284 7.56138 43.1306 7.92642C43.6328 8.29145 44.0426 9.78536 44.3677 10.9781C44.7789 12.495 45.2439 14.2123 46.2729 15.6298C47.302 17.0472 48.7666 17.9956 50.0704 18.8459C51.1645 19.5611 52.4047 20.371 52.6113 21.0031C52.7934 21.5635 52.2618 22.9696 51.8358 24.0988C51.2716 25.5929 50.6329 27.2873 50.6329 29.0877C50.6329 30.8881 51.2718 32.5825 51.8358 34.0766L53.2045 33.5585L54.5731 33.0404C54.0513 31.6588 53.5588 30.3537 53.5588 29.0877C53.5588 27.8216 54.0465 26.5167 54.5715 25.135C55.2494 23.3427 55.8915 21.6368 55.3924 20.0973C54.8674 18.4794 53.2401 17.4171 51.6666 16.389C50.5287 15.6412 49.3387 14.8689 48.6381 13.9044C47.9375 12.9398 47.5523 11.5435 47.1897 10.2091C46.6776 8.3224 46.1948 6.5399 44.844 5.55582C43.4931 4.57174 41.6805 4.66954 39.7429 4.76071C38.3562 4.82591 36.9209 4.89425 35.7521 4.513C34.6468 4.15293 33.5624 3.27475 32.5155 2.42586C31.0377 1.23345 29.5226 0 27.7866 0C26.0505 0 24.5354 1.23345 23.0561 2.42768C22.0092 3.27657 20.925 4.15309 19.8195 4.51316C18.6508 4.89276 17.2786 4.82922 15.8287 4.76088C13.891 4.6697 12.0607 4.58333 10.726 5.55599C9.39134 6.52865 8.89241 8.32571 8.38027 10.2108C8.01771 11.5452 7.64393 12.9252 6.93185 13.906C6.21978 14.8868 5.04939 15.6428 3.90343 16.3906C2.32987 17.4187 0.702646 18.4811 0.177629 20.0989C-0.321467 21.6387 0.320605 23.3379 0.998504 25.1383C1.51873 26.52 2.01122 27.8249 2.01122 29.0893C2.01122 30.3537 1.52352 31.6587 0.998504 33.042C0.320605 34.8343 -0.321467 36.5418 0.177629 38.0798C0.702646 39.6993 2.32987 40.7616 3.90343 41.7897C5.0413 42.5375 6.23133 43.3098 6.9302 44.2743C7.62923 45.2389 8.01606 46.6351 8.37862 47.9695C8.69066 49.1231 8.99477 50.2375 9.49222 51.1548L3.56531 66.3464C3.27143 67.1008 3.6434 67.9511 4.39609 68.2457C4.62029 68.3334 4.86266 68.3643 5.10156 68.3357L13.392 67.3419L18.807 73.7059C19.3318 74.3216 20.2554 74.3942 20.8697 73.868C21.0545 73.7098 21.1969 73.5079 21.2845 73.2806L27.1935 58.1282C27.587 58.1939 27.9885 58.1939 28.3819 58.1282L34.2893 73.2806C34.5837 74.0348 35.4323 74.407 36.1849 74.1119C36.4094 74.0239 36.6087 73.8816 36.7652 73.6977L42.1801 67.3337L50.4706 68.3276C51.273 68.4227 52.0004 67.8477 52.0953 67.0435C52.1232 66.8075 52.0933 66.5683 52.0085 66.3464L46.0793 51.1516C46.5767 50.2344 46.879 49.1199 47.1929 47.9664C47.5538 46.632 47.9276 45.2519 48.6413 44.2712C49.3548 43.2904 50.5237 42.5343 51.6697 41.7866C53.2433 40.7585 54.8721 39.6961 55.3955 38.0783C55.8946 36.5385 55.2542 34.8408 54.5829 33.042ZM19.4423 69.939L15.1068 64.8409C14.7888 64.4677 14.3055 64.2787 13.8193 64.3375L7.18033 65.1342L11.8442 53.1785C13.0065 53.55 14.3866 53.4848 15.8269 53.4165C16.3633 53.3903 16.9177 53.3643 17.4525 53.3643C18.4408 53.3643 19.1935 53.4588 19.8194 53.6625C20.9247 54.0226 22.0074 54.8991 23.056 55.7497C23.5437 56.1423 24.0314 56.5383 24.532 56.8901L19.4423 69.939ZM48.3925 65.1342L41.7551 64.3375C41.2688 64.2792 40.7854 64.4687 40.4677 64.8425L36.1305 69.9406L31.0375 56.8933C31.5383 56.5382 32.0291 56.1422 32.5135 55.7528C33.5604 54.9039 34.6446 54.0274 35.7501 53.6673C36.9174 53.2877 38.2877 53.3513 39.7426 53.4196C41.1974 53.4881 42.563 53.5515 43.7253 53.1817L48.3925 65.1342Z" fill="#FFC200"/>
</svg>
