<svg width="61" height="61" viewBox="0 0 61 61" fill="none" xmlns="http://www.w3.org/2000/svg">
<path d="M35.7714 43.6616V41.7866C35.7713 39.7326 36.2229 37.7037 37.0942 35.8437C37.9655 33.9836 39.2352 32.3379 40.8132 31.0232L41.3964 30.5366L30.1464 19.2866L18.8964 30.5366L19.4795 31.0232C21.0576 32.3379 22.3272 33.9836 23.1985 35.8437C24.0698 37.7037 24.5214 39.7326 24.5214 41.7866V43.6616" fill="#E0E0E0"/>
<path d="M24.5214 43.6616H35.7714C36.2686 43.6616 36.7456 43.8592 37.0972 44.2108C37.4488 44.5624 37.6464 45.0393 37.6464 45.5366V49.2866H22.6464V45.5366C22.6464 45.0393 22.8439 44.5624 23.1955 44.2108C23.5472 43.8592 24.0241 43.6616 24.5214 43.6616Z" fill="#FF6600"/>
<path d="M2.02136 2.41162H9.52136V9.91162H2.02136V2.41162Z" fill="#FF6600"/>
<path d="M7.64636 6.16162V2.41162H2.02136V8.03662H5.77136C6.26864 8.03662 6.74556 7.83908 7.09719 7.48745C7.44882 7.13582 7.64636 6.6589 7.64636 6.16162Z" fill="#F68A0A"/>
<path d="M50.7714 2.41162H58.2714V9.91162H50.7714V2.41162Z" fill="#FF6600"/>
<path d="M50.7714 5.22412H9.52136V7.09912H21.5757C17.9831 8.7435 14.9376 11.3842 12.801 14.7077C10.6643 18.0312 9.52603 21.898 9.52136 25.8491V26.3263H11.3964V25.8491C11.3963 21.4989 12.9085 17.2839 15.674 13.9258C18.4394 10.5678 22.2862 8.27543 26.5557 7.44131L26.9954 7.37381L26.9532 7.09912H33.0001L32.9636 7.30256L33.7032 7.43568C37.9793 8.26441 41.8338 10.555 44.6058 13.9146C47.3779 17.2742 48.8948 21.4935 48.8964 25.8491V26.2091H50.7714V25.8491C50.7666 21.8977 49.628 18.0306 47.4907 14.707C45.3535 11.3835 42.3074 8.74299 38.7142 7.09912H50.7714V5.22412Z" fill="#F9D266"/>
<path d="M29.2089 9.14014H31.0839V12.7242H29.2089V9.14014Z" fill="#FCE797"/>
<path d="M29.2089 14.5991H31.0839V16.4741H29.2089V14.5991Z" fill="#FCE797"/>
<path d="M24.7926 10.1882L27.1055 7.87533L28.4313 9.20116L26.1184 11.5141L24.7926 10.1882Z" fill="#FCE797"/>
<path d="M21.9801 12.9995L23.8548 11.1248L25.1806 12.4506L23.3059 14.3253L21.9801 12.9995Z" fill="#FCE797"/>
<path d="M19.1676 15.812L21.0423 13.9373L22.3681 15.2631L20.4934 17.1378L19.1676 15.812Z" fill="#FCE797"/>
<path d="M16.3551 18.6235L18.2298 16.7488L19.5556 18.0746L17.6809 19.9494L16.3551 18.6235Z" fill="#FCE797"/>
<path d="M31.8537 9.20215L33.1795 7.87632L35.4924 10.1892L34.1666 11.5151L31.8537 9.20215Z" fill="#FCE797"/>
<path d="M35.1032 12.4526L36.429 11.1268L38.3038 13.0015L36.9779 14.3274L35.1032 12.4526Z" fill="#FCE797"/>
<path d="M37.9157 15.2651L39.2415 13.9393L41.1163 15.814L39.7904 17.1399L37.9157 15.2651Z" fill="#FCE797"/>
<path d="M40.7273 18.0776L42.0531 16.7518L43.9278 18.6265L42.602 19.9524L40.7273 18.0776Z" fill="#FCE797"/>
<path d="M37.6464 49.2866L40.4589 58.6616H19.8339L22.6464 49.2866" fill="#F9D266"/>
<path d="M31.0839 30.7091V20.2241L30.1464 19.2866L29.2089 20.2241V30.7091C28.5834 30.9303 28.0562 31.3654 27.7205 31.9377C27.3848 32.51 27.2622 33.1825 27.3744 33.8364C27.4866 34.4903 27.8263 35.0835 28.3336 35.5111C28.8408 35.9387 29.4829 36.1733 30.1464 36.1733C30.8098 36.1733 31.4519 35.9387 31.9592 35.5111C32.4664 35.0835 32.8062 34.4903 32.9184 33.8364C33.0306 33.1825 32.908 32.51 32.5723 31.9377C32.2366 31.3654 31.7094 30.9303 31.0839 30.7091Z" fill="#CCCCCC"/>
<path d="M30.1464 9.91162C32.2174 9.91162 33.8964 8.23269 33.8964 6.16162C33.8964 4.09055 32.2174 2.41162 30.1464 2.41162C28.0753 2.41162 26.3964 4.09055 26.3964 6.16162C26.3964 8.23269 28.0753 9.91162 30.1464 9.91162Z" fill="#FF6600"/>
<path d="M30.1463 2.41163C29.4613 2.41061 28.7892 2.59752 28.2031 2.95201C27.6169 3.3065 27.1393 3.81499 26.8221 4.42212C26.5049 5.02924 26.3603 5.71175 26.4041 6.39535C26.4479 7.07894 26.6783 7.73743 27.0704 8.29912C27.7914 8.80294 28.6668 9.03684 29.5431 8.95978C30.4193 8.88272 31.2405 8.49964 31.8625 7.87771C32.4845 7.25578 32.8678 6.43471 32.945 5.55848C33.0222 4.68226 32.7885 3.80682 32.2848 3.08569C31.658 2.64691 30.9114 2.41158 30.1463 2.41163Z" fill="#FF6600"/>
<path d="M10.4589 33.3491C12.5299 33.3491 14.2089 31.6702 14.2089 29.5991C14.2089 27.5281 12.5299 25.8491 10.4589 25.8491C8.38779 25.8491 6.70886 27.5281 6.70886 29.5991C6.70886 31.6702 8.38779 33.3491 10.4589 33.3491Z" fill="#3D54BD"/>
<path d="M49.8339 33.3491C51.9049 33.3491 53.5839 31.6702 53.5839 29.5991C53.5839 27.5281 51.9049 25.8491 49.8339 25.8491C47.7628 25.8491 46.0839 27.5281 46.0839 29.5991C46.0839 31.6702 47.7628 33.3491 49.8339 33.3491Z" fill="#3D54BD"/>
<path d="M56.3964 6.16162V2.41162H50.7714V8.03662H54.5214C55.0186 8.03662 55.4956 7.83908 55.8472 7.48745C56.1988 7.13582 56.3964 6.6589 56.3964 6.16162Z" fill="#F68A0A"/>
<path d="M10.4588 25.8491C9.77384 25.8481 9.1017 26.035 8.51556 26.3895C7.92942 26.744 7.45176 27.2525 7.13456 27.8596C6.81737 28.4667 6.6728 29.1493 6.71658 29.8328C6.76037 30.5164 6.99084 31.1749 7.3829 31.7366C8.10394 32.2404 8.97934 32.4743 9.85558 32.3973C10.7318 32.3202 11.553 31.9371 12.175 31.3152C12.797 30.6933 13.1803 29.8722 13.2575 28.996C13.3347 28.1198 13.101 27.2443 12.5973 26.5232C11.9705 26.0844 11.2239 25.8491 10.4588 25.8491Z" fill="#546DED"/>
<path d="M49.8339 25.8491C49.1489 25.8481 48.4768 26.035 47.8906 26.3895C47.3045 26.744 46.8268 27.2525 46.5096 27.8596C46.1924 28.4667 46.0479 29.1493 46.0916 29.8328C46.1354 30.5164 46.3659 31.1749 46.758 31.7366C47.479 32.2404 48.3544 32.4743 49.2306 32.3973C50.1069 32.3202 50.928 31.9371 51.5501 31.3152C52.1721 30.6933 52.5553 29.8722 52.6325 28.996C52.7098 28.1198 52.476 27.2443 51.9723 26.5232C51.3456 26.0844 50.599 25.8491 49.8339 25.8491Z" fill="#546DED"/>
<path d="M20.6776 55.8491H33.8964C34.3936 55.8491 34.8706 55.6516 35.2222 55.2999C35.5738 54.9483 35.7714 54.4714 35.7714 53.9741V49.2866H22.6464L20.6776 55.8491Z" fill="#FCE797"/>
<path d="M30.8092 18.6239C30.6334 18.4481 30.395 18.3494 30.1464 18.3494C29.8978 18.3494 29.6594 18.4481 29.4836 18.6239L18.2336 29.8739C18.1414 29.966 18.0694 30.0763 18.0222 30.1978C17.975 30.3194 17.9537 30.4494 17.9596 30.5796C17.9656 30.7098 17.9986 30.8374 18.0565 30.9541C18.1145 31.0708 18.1962 31.1742 18.2964 31.2576L18.8795 31.7432C20.3538 32.9685 21.5397 34.5038 22.3529 36.2398C23.166 37.9758 23.5863 39.8697 23.5839 41.7867V42.8967C23.0374 43.0899 22.564 43.4472 22.2283 43.9198C21.8927 44.3923 21.7113 44.957 21.7089 45.5367V49.1489L18.9358 58.3926C18.8938 58.5326 18.8852 58.6804 18.9105 58.8243C18.9359 58.9682 18.9945 59.1042 19.0818 59.2215C19.169 59.3387 19.2825 59.4339 19.4131 59.4995C19.5437 59.565 19.6878 59.5992 19.8339 59.5992H40.4589C40.605 59.5992 40.7491 59.565 40.8797 59.4995C41.0103 59.4339 41.1237 59.3387 41.211 59.2215C41.2982 59.1042 41.3569 58.9682 41.3822 58.8243C41.4076 58.6804 41.399 58.5326 41.357 58.3926L38.5839 49.1489V45.5367C38.5815 44.957 38.4001 44.3923 38.0644 43.9198C37.7288 43.4472 37.2554 43.0899 36.7089 42.8967V41.7867C36.7065 39.8697 37.1268 37.9758 37.9399 36.2398C38.753 34.5038 39.939 32.9685 41.4133 31.7432L41.9964 31.2576C42.0966 31.1742 42.1783 31.0708 42.2362 30.9541C42.2942 30.8374 42.3272 30.7098 42.3331 30.5796C42.339 30.4494 42.3177 30.3194 42.2706 30.1978C42.2234 30.0763 42.1514 29.966 42.0592 29.8739L30.8092 18.6239ZM30.1464 31.4742C30.5172 31.4742 30.8797 31.5841 31.1881 31.7902C31.4964 31.9962 31.7367 32.289 31.8787 32.6316C32.0206 32.9742 32.0577 33.3512 31.9854 33.715C31.913 34.0787 31.7344 34.4128 31.4722 34.675C31.21 34.9372 30.8759 35.1158 30.5122 35.1881C30.1485 35.2605 29.7715 35.2234 29.4289 35.0814C29.0862 34.9395 28.7934 34.6992 28.5874 34.3909C28.3814 34.0825 28.2714 33.72 28.2714 33.3492C28.2714 32.8519 28.4689 32.375 28.8206 32.0233C29.1722 31.6717 29.6491 31.4742 30.1464 31.4742ZM23.5839 45.5367C23.5839 45.288 23.6827 45.0496 23.8585 44.8738C24.0343 44.6979 24.2727 44.5992 24.5214 44.5992H35.7714C36.02 44.5992 36.2585 44.6979 36.4343 44.8738C36.6101 45.0496 36.7089 45.288 36.7089 45.5367V48.3492H23.5839V45.5367ZM21.0939 57.7242L23.3439 50.2242H36.9489L39.1989 57.7242H21.0939ZM34.8339 41.7867V42.7242H25.4589V41.7867C25.4617 39.6399 25.0007 37.5178 24.1076 35.5656C23.2144 33.6134 21.9101 31.8772 20.2839 30.4757L29.2089 21.5498V29.7323C28.3251 29.9605 27.555 30.5031 27.0427 31.2585C26.5304 32.014 26.3113 32.9303 26.4263 33.8357C26.5413 34.7412 26.9826 35.5736 27.6674 36.177C28.3523 36.7803 29.2337 37.1132 30.1464 37.1132C31.0591 37.1132 31.9405 36.7803 32.6254 36.177C33.3102 35.5736 33.7515 34.7412 33.8665 33.8357C33.9815 32.9303 33.7623 32.014 33.2501 31.2585C32.7378 30.5031 31.9676 29.9605 31.0839 29.7323V21.5498L40.0089 30.4757C38.3827 31.8772 37.0784 33.6134 36.1852 35.5656C35.292 37.5178 34.8311 39.6399 34.8339 41.7867Z" fill="black"/>
<path d="M58.2714 1.47418H50.7714C50.5227 1.47418 50.2843 1.57295 50.1084 1.74877C49.9326 1.92458 49.8339 2.16304 49.8339 2.41168V5.22418H34.7401C34.5249 4.16454 33.9501 3.21186 33.1129 2.52758C32.2757 1.84329 31.2276 1.46948 30.1464 1.46948C29.0651 1.46948 28.0171 1.84329 27.1799 2.52758C26.3427 3.21186 25.7678 4.16454 25.5526 5.22418H10.4589V2.41168C10.4589 2.16304 10.3601 1.92458 10.1843 1.74877C10.0085 1.57295 9.77 1.47418 9.52136 1.47418H2.02136C1.77272 1.47418 1.53427 1.57295 1.35845 1.74877C1.18263 1.92458 1.08386 2.16304 1.08386 2.41168V9.91168C1.08386 10.1603 1.18263 10.3988 1.35845 10.5746C1.53427 10.7504 1.77272 10.8492 2.02136 10.8492H9.52136C9.77 10.8492 10.0085 10.7504 10.1843 10.5746C10.3601 10.3988 10.4589 10.1603 10.4589 9.91168V7.09918H21.5757C18.1166 8.68589 15.1635 11.1981 13.0428 14.3581C10.9221 17.5182 9.71637 21.203 9.55886 25.0054C8.41899 25.2292 7.40282 25.8683 6.70735 26.7987C6.01188 27.7292 5.68667 28.8847 5.79475 30.0413C5.90284 31.1979 6.43653 32.2731 7.29235 33.0586C8.14817 33.8441 9.26516 34.2838 10.4268 34.2925C11.5884 34.3012 12.7118 33.8783 13.5793 33.1058C14.4468 32.3332 14.9966 31.2661 15.122 30.1112C15.2474 28.9564 14.9396 27.7961 14.2582 26.8554C13.5767 25.9146 12.5702 25.2604 11.4339 25.0195C11.6142 20.9671 13.1044 17.0826 15.6807 13.9493C18.257 10.816 21.7802 8.60311 25.7214 7.64293C25.8457 8.03045 26.02 8.40012 26.2398 8.74262L24.796 10.1864L26.1217 11.512L27.5654 10.0682C28.0638 10.4011 28.6219 10.6344 29.2089 10.7554V12.7242H31.0839V10.7554C31.6708 10.6347 32.2288 10.4017 32.7273 10.0692L34.1711 11.5129L35.4967 10.1873L34.0529 8.74356C34.2728 8.40076 34.4471 8.03077 34.5714 7.64293C38.5122 8.6028 42.0354 10.8152 44.6118 13.9479C47.1882 17.0807 48.6788 20.9646 48.8598 25.0167C47.7234 25.2575 46.7169 25.9118 46.0355 26.8525C45.3541 27.7933 45.0462 28.9536 45.1716 30.1084C45.2971 31.2633 45.8468 32.3304 46.7143 33.1029C47.5818 33.8755 48.7053 34.2984 49.8669 34.2897C51.0285 34.281 52.1455 33.8413 53.0013 33.0558C53.8571 32.2703 54.3908 31.1951 54.4989 30.0385C54.607 28.8819 54.2818 27.7263 53.5863 26.7959C52.8908 25.8655 51.8747 25.2264 50.7348 25.0026C50.5767 21.2006 49.3706 17.5163 47.2497 14.3567C45.1289 11.1972 42.1759 8.68554 38.717 7.09918H49.8339V9.91168C49.8339 10.1603 49.9326 10.3988 50.1084 10.5746C50.2843 10.7504 50.5227 10.8492 50.7714 10.8492H58.2714C58.52 10.8492 58.7585 10.7504 58.9343 10.5746C59.1101 10.3988 59.2089 10.1603 59.2089 9.91168V2.41168C59.2089 2.16304 59.1101 1.92458 58.9343 1.74877C58.7585 1.57295 58.52 1.47418 58.2714 1.47418ZM8.58386 8.97418H2.95886V3.34918H8.58386V8.97418ZM13.2714 29.5992C13.2714 30.1554 13.1064 30.6992 12.7974 31.1617C12.4883 31.6242 12.0491 31.9847 11.5352 32.1976C11.0212 32.4105 10.4557 32.4662 9.91017 32.3576C9.3646 32.2491 8.86346 31.9813 8.47012 31.5879C8.07679 31.1946 7.80892 30.6934 7.7004 30.1479C7.59188 29.6023 7.64758 29.0368 7.86045 28.5229C8.07332 28.009 8.43381 27.5697 8.89632 27.2607C9.35883 26.9516 9.9026 26.7867 10.4589 26.7867C11.2048 26.7867 11.9202 27.083 12.4476 27.6104C12.975 28.1379 13.2714 28.8533 13.2714 29.5992ZM52.6464 29.5992C52.6464 30.1554 52.4814 30.6992 52.1724 31.1617C51.8633 31.6242 51.4241 31.9847 50.9102 32.1976C50.3962 32.4105 49.8307 32.4662 49.2852 32.3576C48.7396 32.2491 48.2385 31.9813 47.8451 31.5879C47.4518 31.1946 47.1839 30.6934 47.0754 30.1479C46.9669 29.6023 47.0226 29.0368 47.2355 28.5229C47.4483 28.009 47.8088 27.5697 48.2713 27.2607C48.7338 26.9516 49.2776 26.7867 49.8339 26.7867C50.5798 26.7867 51.2952 27.083 51.8226 27.6104C52.35 28.1379 52.6464 28.8533 52.6464 29.5992ZM30.1464 8.97418C29.5901 8.97418 29.0463 8.80923 28.5838 8.50019C28.1213 8.19115 27.7608 7.7519 27.548 7.23798C27.3351 6.72406 27.2794 6.15856 27.3879 5.61299C27.4964 5.06742 27.7643 4.56628 28.1576 4.17294C28.551 3.77961 29.0521 3.51174 29.5977 3.40322C30.1432 3.2947 30.7087 3.3504 31.2227 3.56327C31.7366 3.77614 32.1758 4.13663 32.4849 4.59914C32.7939 5.06165 32.9589 5.60542 32.9589 6.16168C32.9589 6.9076 32.6625 7.62297 32.1351 8.15042C31.6077 8.67787 30.8923 8.97418 30.1464 8.97418ZM57.3339 8.97418H51.7089V3.34918H57.3339V8.97418Z" fill="black"/>
<path d="M29.2089 14.5991H31.0839V16.4741H29.2089V14.5991Z" fill="black"/>
<path d="M21.9801 12.9995L23.8548 11.1248L25.1806 12.4506L23.3059 14.3253L21.9801 12.9995Z" fill="black"/>
<path d="M19.1676 15.812L21.0423 13.9373L22.3681 15.2631L20.4934 17.1378L19.1676 15.812Z" fill="black"/>
<path d="M16.3551 18.6235L18.2298 16.7488L19.5556 18.0746L17.6809 19.9494L16.3551 18.6235Z" fill="black"/>
<path d="M35.1032 12.4526L36.429 11.1268L38.3038 13.0015L36.9779 14.3274L35.1032 12.4526Z" fill="black"/>
<path d="M37.9157 15.2651L39.2415 13.9393L41.1163 15.814L39.7904 17.1399L37.9157 15.2651Z" fill="black"/>
<path d="M40.7273 18.0776L42.0531 16.7518L43.9278 18.6265L42.602 19.9524L40.7273 18.0776Z" fill="black"/>
</svg>
