<svg width="64" height="72" viewBox="0 0 64 72" fill="none" xmlns="http://www.w3.org/2000/svg">
<path d="M31.9997 41.9297C23.8533 41.9297 17.226 35.3024 17.226 27.156V23.6888C17.226 22.9147 17.8532 22.2875 18.6272 22.2875H45.3722C46.1463 22.2875 46.7735 22.9147 46.7735 23.6888V27.156C46.7736 35.3024 40.1461 41.9297 31.9997 41.9297ZM20.0287 25.0901V27.156C20.0287 33.7569 25.3989 39.127 31.9997 39.127C38.6007 39.127 43.9709 33.7568 43.9709 27.156V25.0901H20.0287Z" fill="#FFC200"/>
<path d="M45.5675 25.0901H18.4324C15.159 25.0901 12.4961 22.4267 12.4961 19.1533C12.4961 17.4218 13.2566 15.7851 14.5564 14.663C16.0257 6.26432 23.4241 0 31.9996 0C40.5753 0 47.974 6.26432 49.4438 14.6634C50.7438 15.7854 51.5038 17.4222 51.5038 19.1531C51.5038 22.4266 48.8407 25.0901 45.5675 25.0901ZM31.9996 2.80256C24.6191 2.80256 18.2747 8.31472 17.2414 15.624C17.1867 16.0104 16.9732 16.3566 16.6524 16.5792C15.8046 17.1672 15.2985 18.1296 15.2985 19.1533C15.2985 20.8818 16.7044 22.2875 18.4323 22.2875H45.5671C47.295 22.2875 48.7009 20.8818 48.7009 19.1533C48.7009 18.1298 48.1947 17.1677 47.3471 16.5792C47.0263 16.3566 46.8129 16.0104 46.7582 15.624C45.7252 8.31472 39.3801 2.80256 31.9996 2.80256Z" fill="#FFC200"/>
<path d="M28.3464 11.1606C27.7248 11.1606 27.1568 10.7437 26.9917 10.1142L25.0593 2.74064C24.8633 1.992 25.3112 1.22576 26.0597 1.0296C26.8086 0.835202 27.5741 1.28144 27.7707 2.02992L29.703 9.40352C29.899 10.1522 29.4512 10.9184 28.7027 11.1146C28.5837 11.1456 28.4641 11.1606 28.3464 11.1606Z" fill="#FFC200"/>
<path d="M35.6534 11.1606C35.5358 11.1606 35.4163 11.1456 35.2973 11.1146C34.5486 10.9184 34.1008 10.152 34.297 9.40352L36.2293 2.02992C36.4259 1.28192 37.1926 0.83616 37.9403 1.0296C38.689 1.22576 39.1368 1.99216 38.9406 2.74064L37.0083 10.1142C36.8432 10.7437 36.2752 11.1606 35.6534 11.1606Z" fill="#FFC200"/>
<path d="M16.1546 62.2864C15.3805 62.2864 14.7533 61.6592 14.7533 60.885V44.944C14.7533 44.1699 15.3805 43.5427 16.1546 43.5427C16.9287 43.5427 17.5559 44.1699 17.5559 44.944V60.885C17.5559 61.659 16.9287 62.2864 16.1546 62.2864Z" fill="#FFC200"/>
<path d="M34.0989 52.3879H29.895C25.2045 52.3879 21.3883 48.5717 21.3883 43.8807C21.3883 43.1066 22.0155 42.4767 22.7896 42.4767C23.5637 42.4767 24.1909 43.1011 24.1909 43.8752C24.1909 47.0263 26.7497 49.5853 29.895 49.5853H34.0989C37.2472 49.5853 39.8089 47.0235 39.8089 43.8752C39.8089 43.1011 40.4361 42.4739 41.2102 42.4739C41.9843 42.4739 42.6115 43.1011 42.6115 43.8752C42.6115 48.569 38.7928 52.3879 34.0989 52.3879Z" fill="#FFC200"/>
<path d="M47.8454 62.2864C47.0713 62.2864 46.4441 61.6592 46.4441 60.885V44.9448C46.4441 44.1707 47.0713 43.5435 47.8454 43.5435C48.6195 43.5435 49.2467 44.1707 49.2467 44.9448V60.885C49.2468 61.659 48.6195 62.2864 47.8454 62.2864Z" fill="#FFC200"/>
<path d="M48.146 16.8291H15.8542C15.0801 16.8291 14.4529 16.2019 14.4529 15.4278C14.4529 14.6538 15.0801 14.0266 15.8542 14.0266H48.146C48.9201 14.0266 49.5473 14.6538 49.5473 15.4278C49.5473 16.2021 48.9201 16.8291 48.146 16.8291Z" fill="#FFC200"/>
<path d="M61.9606 72H2.03934C1.26526 72 0.638062 71.3728 0.638062 70.5987V61.208C0.638062 51.3784 8.63518 43.3811 18.4648 43.3811H19.4729C21.7126 43.3811 23.6777 41.9498 24.3632 39.8195C24.475 39.472 24.5768 39.1162 24.6702 38.7558C24.7765 38.3461 25.0621 38.0062 25.4475 37.8317C25.8329 37.6562 26.2753 37.6656 26.6544 37.8544C30.0257 39.5435 33.9747 39.5427 37.3451 37.8544C37.7237 37.6656 38.1675 37.656 38.5526 37.8317C38.9376 38.0069 39.2232 38.3462 39.3294 38.7558C39.423 39.1166 39.5246 39.472 39.6369 39.819C40.3225 41.9502 42.2872 43.3811 44.5264 43.3811H45.5344C55.3645 43.3811 63.3617 51.3784 63.3617 61.2085V70.5987C63.3619 71.3728 62.7347 72 61.9606 72ZM3.44078 69.1974H60.5593V61.2085C60.5593 52.9238 53.8193 46.1838 45.5347 46.1838H44.5267C41.1864 46.1838 38.2409 44.123 37.0873 41.0189C33.8249 42.2296 30.1749 42.2296 26.9134 41.0189C25.7593 44.123 22.8136 46.1838 19.4733 46.1838H18.4651C10.1805 46.1838 3.44094 52.9235 3.44094 61.2082L3.44078 69.1974Z" fill="#FFC200"/>
<path d="M53.2868 72H10.713C9.93897 72 9.31177 71.3728 9.31177 70.5987V63.6875C9.31177 61.3694 11.1975 59.4837 13.5156 59.4837H50.4842C52.8023 59.4837 54.6881 61.3694 54.6881 63.6875V70.5987C54.6881 71.3728 54.0609 72 53.2868 72ZM12.1143 69.1974H51.8855V63.6877C51.8855 62.9149 51.2569 62.2864 50.4842 62.2864H13.5156C12.7428 62.2864 12.1143 62.9149 12.1143 63.6877V69.1974Z" fill="#FFC200"/>
</svg>
