<svg width="61" height="61" viewBox="0 0 61 61" fill="none" xmlns="http://www.w3.org/2000/svg">
<path fill-rule="evenodd" clip-rule="evenodd" d="M16.0991 2.1709H39.321L44.987 8.32324V39.4506C44.9864 39.6607 44.9025 39.862 44.7538 40.0105C44.6052 40.1589 44.4037 40.2425 44.1936 40.2428H16.0991C15.889 40.2425 15.6875 40.1589 15.5389 40.0105C15.3902 39.862 15.3063 39.6607 15.3057 39.4506V2.96309C15.3063 2.75297 15.3902 2.55166 15.5389 2.4032C15.6875 2.25473 15.889 2.17121 16.0991 2.1709Z" fill="#F4F4F4"/>
<path fill-rule="evenodd" clip-rule="evenodd" d="M39.321 2.1709L44.987 8.32324H39.7135C39.6084 8.32293 39.5076 8.28094 39.4334 8.20647C39.3591 8.132 39.3174 8.03114 39.3174 7.92598L39.321 2.1709Z" fill="#E7E7E7"/>
<path d="M24.1007 11.4346H18.989C18.6653 11.4346 18.403 11.6969 18.403 12.0205V17.1322C18.403 17.4558 18.6653 17.7182 18.989 17.7182H24.1007C24.4243 17.7182 24.6866 17.4558 24.6866 17.1322V12.0205C24.6866 11.6969 24.4243 11.4346 24.1007 11.4346Z" fill="#8AC9FE"/>
<path fill-rule="evenodd" clip-rule="evenodd" d="M10.4401 20.6583L2.07293 35.1521C2.02192 35.2405 2.00807 35.3456 2.03444 35.4442C2.0608 35.5429 2.12522 35.627 2.21355 35.6782L9.12761 39.672L17.8803 24.5114L10.9663 20.5177C10.8778 20.467 10.7728 20.4533 10.6742 20.4797C10.5757 20.506 10.4915 20.5702 10.4401 20.6583Z" fill="#737373"/>
<path fill-rule="evenodd" clip-rule="evenodd" d="M42.4089 22.5861L51.1617 37.7467L58.0757 33.7529C58.1641 33.7017 58.2285 33.6176 58.2548 33.5189C58.2812 33.4203 58.2674 33.3152 58.2164 33.2268L49.8492 18.733C49.7977 18.6449 49.7136 18.5807 49.615 18.5544C49.5165 18.528 49.4115 18.5417 49.323 18.5924L42.4089 22.5861Z" fill="#737373"/>
<path fill-rule="evenodd" clip-rule="evenodd" d="M25.3991 31.9471L26.6882 27.1166C26.8106 26.6579 27.0386 26.2341 27.3538 25.8791L26.8066 25.5627C24.314 24.7072 20.9777 23.9901 17.8792 24.508L9.13116 39.6709C10.4471 40.8178 11.5648 42.1739 12.4394 43.6846L13.2444 42.2912C13.5966 41.6952 14.1697 41.2622 14.8393 41.0864C15.5088 40.9106 16.2208 41.0061 16.8203 41.3523C17.4198 41.6985 17.8585 42.2672 18.0409 42.935C18.2234 43.6028 18.135 44.3156 17.7948 44.9186C18.147 44.3225 18.7201 43.8896 19.3897 43.7137C20.0592 43.5379 20.7711 43.6335 21.3707 43.9796C21.9702 44.3258 22.4088 44.8946 22.5913 45.5624C22.7738 46.2301 22.6854 46.943 22.3452 47.5459C22.6973 46.9499 23.2705 46.5169 23.9401 46.3411C24.6096 46.1653 25.3215 46.2608 25.921 46.607C26.5206 46.9531 26.9592 47.5219 27.1417 48.1897C27.3242 48.8575 27.2358 49.5703 26.8956 50.1733C27.0662 49.8708 27.2951 49.6052 27.569 49.3918C27.8429 49.1784 28.1564 49.0213 28.4913 48.9298C28.8263 48.8383 29.1761 48.814 29.5204 48.8585C29.8648 48.903 30.197 49.0153 30.4977 49.1889C30.7984 49.3625 31.0617 49.594 31.2724 49.8701C31.4831 50.1461 31.6369 50.4611 31.7251 50.797C31.8133 51.1328 31.8341 51.4828 31.7861 51.8267C31.7382 52.1706 31.6226 52.5016 31.446 52.8006L29.7761 55.6928L33.7874 58.0096C34.4943 58.4175 35.3343 58.5279 36.1227 58.3165C36.911 58.1051 37.583 57.5892 37.9909 56.8822C38.3989 56.1753 38.5093 55.3353 38.2978 54.547C38.0864 53.7587 37.5705 53.0867 36.8636 52.6787C37.5688 53.0712 38.3999 53.1709 39.1778 52.9564C39.9558 52.7419 40.6184 52.2305 41.0229 51.5321C41.4274 50.8338 41.5414 50.0046 41.3403 49.223C41.1393 48.4414 40.6392 47.7701 39.948 47.3537C40.6552 47.7607 41.4951 47.8701 42.283 47.6578C43.0709 47.4455 43.7421 46.9289 44.1491 46.2217C44.5561 45.5145 44.6655 44.6745 44.4532 43.8867C44.2409 43.0988 43.7243 42.4275 43.0171 42.0205C43.7243 42.426 44.5632 42.5351 45.3505 42.3241C46.1379 42.1131 46.8098 41.5991 47.2195 40.8944C47.3647 40.644 47.4732 40.374 47.5417 40.0928C47.6987 39.4459 47.6425 38.7656 47.3815 38.1532C47.1205 37.5408 46.6686 37.0291 46.0933 36.6944L44.2359 35.6221L40.8948 33.6944L33.6292 29.5026L32.1984 29.8447C30.8636 30.1635 30.0105 32.8436 27.7112 36.0229C27.1476 36.8022 26.7609 37.558 25.9253 36.3264C25.511 35.6682 25.2365 34.9319 25.1191 34.1631C24.9773 33.2514 25.1718 32.792 25.3991 31.9471Z" fill="#FFECC6"/>
<path fill-rule="evenodd" clip-rule="evenodd" d="M39.7651 51.8724C39.9963 52.0054 40.1696 52.2198 40.2514 52.4736C39.7686 52.8352 39.1904 53.0474 38.5882 53.0838C37.9861 53.1203 37.3865 52.9794 36.8636 52.6787L33.3948 50.6748C33.2718 50.6048 33.1639 50.5112 33.0772 50.3993C32.9905 50.2875 32.9267 50.1597 32.8895 50.0231C32.8524 49.8866 32.8425 49.7441 32.8606 49.6037C32.8786 49.4634 32.9242 49.328 32.9948 49.2053C33.0653 49.0826 33.1593 48.9751 33.2715 48.8889C33.3837 48.8026 33.5118 48.7394 33.6485 48.7028C33.7852 48.6662 33.9278 48.657 34.068 48.6756C34.2083 48.6943 34.3435 48.7405 34.4659 48.8115L39.7651 51.8724Z" fill="#FBE1BD"/>
<path fill-rule="evenodd" clip-rule="evenodd" d="M46.0909 41.3114C46.2661 41.4127 46.4091 41.5614 46.5034 41.7403C46.0193 42.1349 45.4269 42.3734 44.8045 42.4242C44.182 42.4751 43.5588 42.3359 43.0171 42.0251L34.9827 37.3857C34.8603 37.3147 34.753 37.2203 34.6671 37.108C34.5811 36.9956 34.5182 36.8673 34.4818 36.7306C34.4454 36.5939 34.4362 36.4513 34.4549 36.3111C34.4736 36.1708 34.5198 36.0356 34.5907 35.9132C34.734 35.666 34.9696 35.4858 35.2458 35.4122C35.3825 35.3758 35.5251 35.3667 35.6653 35.3854C35.8056 35.4041 35.9408 35.4503 36.0632 35.5212L46.0909 41.3114Z" fill="#FBE1BD"/>
<path fill-rule="evenodd" clip-rule="evenodd" d="M9.85888 48.1564L13.2444 42.2971C13.5965 41.701 14.1697 41.2681 14.8392 41.0923C15.5088 40.9164 16.2207 41.012 16.8202 41.3581C17.4198 41.7043 17.8584 42.2731 18.0409 42.9409C18.2234 43.6087 18.135 44.3215 17.7948 44.9244C18.1469 44.3284 18.7201 43.8954 19.3896 43.7196C20.0592 43.5438 20.7711 43.6393 21.3706 43.9855C21.9702 44.3316 22.4088 44.9004 22.5913 45.5682C22.7738 46.236 22.6854 46.9488 22.3452 47.5518C22.6973 46.9557 23.2705 46.5228 23.94 46.3469C24.6096 46.1711 25.3215 46.2667 25.921 46.6128C26.5205 46.959 26.9592 47.5278 27.1417 48.1956C27.3242 48.8633 27.2357 49.5762 26.8956 50.1791C27.0662 49.8767 27.2951 49.6111 27.569 49.3976C27.8429 49.1842 28.1564 49.0272 28.4913 48.9357C28.8263 48.8441 29.176 48.8199 29.5204 48.8644C29.8648 48.9088 30.1969 49.0211 30.4976 49.1948C30.7983 49.3684 31.0617 49.5999 31.2723 49.8759C31.483 50.1519 31.6369 50.467 31.7251 50.8028C31.8133 51.1387 31.834 51.4887 31.7861 51.8326C31.7382 52.1765 31.6226 52.5075 31.446 52.8064L29.3765 56.3912C29.2058 56.6936 28.977 56.9592 28.7031 57.1727C28.4292 57.3861 28.1157 57.5431 27.7807 57.6347C27.4458 57.7262 27.096 57.7504 26.7516 57.706C26.4073 57.6615 26.0751 57.5492 25.7744 57.3756C25.4737 57.2019 25.2104 56.9704 24.9997 56.6944C24.789 56.4184 24.6351 56.1034 24.5469 55.7675C24.4588 55.4317 24.438 55.0817 24.4859 54.7377C24.5338 54.3938 24.6494 54.0628 24.8261 53.7639L24.1698 54.8982C23.8149 55.4884 23.2425 55.9156 22.5758 56.088C21.9091 56.2604 21.2013 56.1641 20.6049 55.8199C20.0085 55.4756 19.571 54.911 19.3867 54.2475C19.2024 53.584 19.286 52.8746 19.6194 52.2721L19.2913 52.8416C18.9434 53.4453 18.3698 53.8861 17.6969 54.067C17.024 54.2479 16.3067 54.154 15.703 53.8061C15.0993 53.4581 14.6585 52.8846 14.4776 52.2117C14.2968 51.5387 14.3906 50.8215 14.7386 50.2178L14.4093 50.7873C14.0571 51.3833 13.484 51.8163 12.8144 51.9921C12.1449 52.1679 11.433 52.0724 10.8334 51.7262C10.2339 51.3801 9.79526 50.8113 9.61277 50.1435C9.43028 49.4757 9.51873 48.7629 9.85888 48.16V48.1564Z" fill="#FBE1BD"/>
<path fill-rule="evenodd" clip-rule="evenodd" d="M30.8753 49.4888C31.3408 49.8884 31.6525 50.4379 31.7567 51.0425C31.8608 51.6472 31.751 52.2693 31.446 52.8017L29.3764 56.3864C29.0679 56.9169 28.5841 57.3232 28.0083 57.5354C27.4325 57.7476 26.8007 57.7523 26.2217 57.5489L30.8753 49.4888Z" fill="#ECD4B4"/>
<path fill-rule="evenodd" clip-rule="evenodd" d="M26.3249 46.8616C26.7905 47.2612 27.1022 47.8107 27.2063 48.4153C27.3105 49.02 27.2006 49.6421 26.8956 50.1745L24.8249 53.7616L24.1698 54.8983C23.8697 55.4143 23.4034 55.8132 22.8472 56.0299C22.2911 56.2466 21.6778 56.2682 21.1077 56.0913C21.1224 55.9409 21.1691 55.7954 21.2448 55.6647L26.3249 46.8616Z" fill="#ECD4B4"/>
<path fill-rule="evenodd" clip-rule="evenodd" d="M21.7745 44.2341C22.24 44.6338 22.5517 45.1832 22.6559 45.7879C22.7601 46.3926 22.6502 47.0146 22.3452 47.547L19.6159 52.2744L19.2877 52.8439C18.9916 53.3521 18.5342 53.7468 17.9882 53.9655C17.4422 54.1841 16.8387 54.2142 16.2737 54.0509C16.2733 53.8626 16.3226 53.6774 16.4167 53.5142L21.7745 44.2341Z" fill="#ECD4B4"/>
<path fill-rule="evenodd" clip-rule="evenodd" d="M17.2206 41.6045C17.6875 42.0037 18.0004 42.5533 18.1052 43.1586C18.21 43.7639 18.1003 44.3868 17.7948 44.9197L14.7362 50.2178L14.4069 50.7873C14.1674 51.1974 13.8215 51.5352 13.4059 51.765C12.9903 51.9947 12.5203 52.108 12.0456 52.0928C11.888 51.9236 11.789 51.7082 11.763 51.4785C11.7371 51.2487 11.7856 51.0167 11.9014 50.8166L17.2206 41.6045Z" fill="#ECD4B4"/>
<path fill-rule="evenodd" clip-rule="evenodd" d="M42.4089 22.5861C39.1722 22.415 33.5987 22.8755 29.8874 24.5853C29.3882 24.8197 29.2323 24.8197 28.7448 24.9791C28.21 25.1485 27.731 25.4595 27.3585 25.8791C27.0433 26.2341 26.8153 26.6578 26.6929 27.1166L25.4038 31.947C25.1765 32.792 24.9819 33.2513 25.1237 34.1607C25.2403 34.9297 25.514 35.6665 25.9277 36.3252C26.7632 37.5568 27.1499 36.8009 27.7136 36.0216C30.0128 32.8423 30.8659 30.1623 32.2007 29.8435L33.6316 29.5013L40.8972 33.6931L44.2382 35.6232L46.0956 36.6955C46.671 37.0302 47.1228 37.5419 47.3838 38.1543C47.6448 38.7667 47.701 39.447 47.5441 40.0939C48.73 39.8209 50.1222 37.6986 51.164 37.7443L42.4089 22.5861Z" fill="#FBE1BD"/>
<path fill-rule="evenodd" clip-rule="evenodd" d="M43.0136 46.6388C43.1887 46.74 43.3317 46.8887 43.4261 47.0677C42.942 47.4623 42.3496 47.7007 41.7271 47.7516C41.1047 47.8024 40.4814 47.6632 39.9397 47.3525L33.6526 43.7196C33.4054 43.5764 33.2252 43.3407 33.1517 43.0646C33.0782 42.7885 33.1174 42.4944 33.2606 42.2472C33.4039 41.9999 33.6396 41.8197 33.9157 41.7462C34.1918 41.6727 34.4859 41.7119 34.7331 41.8552L43.0136 46.6388Z" fill="#FBE1BD"/>
<path fill-rule="evenodd" clip-rule="evenodd" d="M28.3546 14.7615C28.3546 14.5129 28.4533 14.2744 28.6292 14.0986C28.805 13.9228 29.0434 13.824 29.2921 13.824H37.6124C37.861 13.824 38.0995 13.9228 38.2753 14.0986C38.4511 14.2744 38.5499 14.5129 38.5499 14.7615C38.5499 15.0101 38.4511 15.2486 38.2753 15.4244C38.0995 15.6002 37.861 15.699 37.6124 15.699H29.2921C29.0434 15.699 28.805 15.6002 28.6292 15.4244C28.4533 15.2486 28.3546 15.0101 28.3546 14.7615ZM28.3546 11.4345C28.3546 11.1859 28.4533 10.9474 28.6292 10.7716C28.805 10.5958 29.0434 10.497 29.2921 10.497H35.1421C35.3907 10.497 35.6292 10.5958 35.805 10.7716C35.9808 10.9474 36.0796 11.1859 36.0796 11.4345C36.0796 11.6832 35.9808 11.9216 35.805 12.0975C35.6292 12.2733 35.3907 12.372 35.1421 12.372H29.2921C29.0434 12.372 28.805 12.2733 28.6292 12.0975C28.4533 11.9216 28.3546 11.6832 28.3546 11.4345ZM28.3546 18.0884C28.3546 17.8398 28.4533 17.6014 28.6292 17.4255C28.805 17.2497 29.0434 17.1509 29.2921 17.1509H41.8897C42.1384 17.1509 42.3768 17.2497 42.5526 17.4255C42.7285 17.6014 42.8272 17.8398 42.8272 18.0884C42.8272 18.3371 42.7285 18.5755 42.5526 18.7514C42.3768 18.9272 42.1384 19.0259 41.8897 19.0259H29.2921C29.0434 19.0259 28.805 18.9272 28.6292 18.7514C28.4533 18.5755 28.3546 18.3371 28.3546 18.0884ZM23.3354 14.3748L21.9104 16.0154C21.826 16.1124 21.7224 16.1909 21.6063 16.2461C21.4902 16.3014 21.364 16.3321 21.2354 16.3365H21.2038C21.0806 16.3366 20.9587 16.3124 20.8449 16.2654C20.7311 16.2183 20.6276 16.1493 20.5405 16.0623L19.7987 15.3205C19.622 15.1449 19.5223 14.9063 19.5216 14.6572C19.5208 14.4081 19.619 14.1688 19.7946 13.9922C19.9702 13.8155 20.2088 13.7158 20.4579 13.715C20.707 13.7142 20.9462 13.8125 21.1229 13.9881L21.1557 14.0209L21.921 13.1431C22.0858 12.9612 22.3155 12.8512 22.5605 12.8368C22.8056 12.8223 23.0465 12.9046 23.2316 13.0659C23.4167 13.2272 23.5311 13.4546 23.5503 13.6994C23.5695 13.9441 23.4919 14.1866 23.3343 14.3748H23.3354ZM19.3405 12.372V16.7806H23.7491V12.372H19.3405ZM24.6866 18.6556C24.9352 18.6556 25.1737 18.5569 25.3495 18.381C25.5253 18.2052 25.6241 17.9668 25.6241 17.7181V11.4345C25.6241 11.1859 25.5253 10.9474 25.3495 10.7716C25.1737 10.5958 24.9352 10.497 24.6866 10.497H18.403C18.1544 10.497 17.9159 10.5958 17.7401 10.7716C17.5643 10.9474 17.4655 11.1859 17.4655 11.4345V17.7181C17.4655 17.9668 17.5643 18.2052 17.7401 18.381C17.9159 18.5569 18.1544 18.6556 18.403 18.6556H24.6866ZM51.505 36.4681L43.6897 22.9295L49.3147 19.681L57.13 33.2174L51.505 36.4658V36.4681ZM48.4522 38.3994L48.6866 38.192C49.0397 37.8609 49.4157 37.5551 49.8116 37.2767L41.8546 23.499C38.8839 23.4146 33.7229 23.8506 30.2788 25.4338C29.9824 25.5735 29.6742 25.6864 29.3577 25.7713C29.2639 25.7982 29.1585 25.8287 29.0284 25.8697C28.6691 25.9836 28.3458 26.1897 28.0909 26.4674C28.0733 26.4873 28.0569 26.5072 28.0382 26.5259C27.8334 26.7668 27.6849 27.0502 27.6034 27.3556L26.3143 32.1861C26.2815 32.3033 26.2487 32.4205 26.2182 32.5377C26.0507 33.1365 25.9663 33.4365 26.0565 34.0166C26.1491 34.6502 26.37 35.2583 26.7057 35.8037L26.7151 35.8166L26.8194 35.6701C26.8639 35.6068 26.9097 35.5412 26.9565 35.4767C27.6991 34.4284 28.3879 33.343 29.0202 32.2248C30.0374 30.4834 30.7722 29.2259 31.985 28.9365L33.4159 28.5943C33.6491 28.5385 33.8949 28.5741 34.1026 28.6939L46.562 35.8881C47.0303 36.1582 47.439 36.5204 47.7634 36.9529C48.0879 37.3853 48.3214 37.8789 48.4499 38.4041L48.4522 38.3994ZM46.4097 40.4291C46.6929 39.9378 46.7696 39.3541 46.6228 38.8063C46.4761 38.2585 46.1178 37.7914 45.6268 37.5076L33.4909 30.4998L32.4233 30.7552C31.9897 30.8584 31.3042 32.0314 30.6421 33.1658C30.0819 34.1232 29.3858 35.3162 28.4788 36.5713C28.4354 36.6299 28.3932 36.6884 28.3522 36.747C27.9854 37.2673 27.5319 37.9189 26.7292 37.9189H26.7151C25.9593 37.9107 25.4636 37.3084 25.1565 36.856C24.6612 36.084 24.3338 35.2164 24.1956 34.3095C24.0421 33.3275 24.2108 32.7287 24.4054 32.0361L24.4956 31.708L25.7847 26.8787C25.8392 26.6755 25.9094 26.4769 25.9944 26.2845C23.9507 25.6318 21.1628 25.0295 18.4675 25.3775L10.3229 39.4834C11.0878 40.2206 11.7808 41.0289 12.3925 41.8974L12.4323 41.8295C12.792 41.2086 13.3307 40.7108 13.9779 40.4011C14.6252 40.0915 15.3508 39.9844 16.0599 40.0939C16.769 40.2035 17.4285 40.5245 17.9522 41.015C18.4758 41.5055 18.8392 42.1427 18.9948 42.8431C19.044 42.8267 19.0944 42.8127 19.1448 42.7998C19.5966 42.6776 20.068 42.6459 20.5321 42.7064C20.9961 42.767 21.4437 42.9186 21.849 43.1526C22.2542 43.3866 22.6093 43.6984 22.8938 44.07C23.1782 44.4417 23.3865 44.8658 23.5065 45.3181C23.5206 45.3685 23.5323 45.4189 23.544 45.4705L23.6952 45.4259C24.147 45.3041 24.6183 45.2726 25.0823 45.3333C25.5462 45.394 25.9936 45.5457 26.3989 45.7797C26.8041 46.0136 27.1591 46.3253 27.4436 46.6967C27.7282 47.0682 27.9366 47.4921 28.0569 47.9443C28.071 47.9959 28.0827 48.0463 28.0944 48.0978C28.1448 48.0814 28.1952 48.0674 28.2456 48.0533C28.9956 47.8511 29.7911 47.9001 30.5107 48.1928C31.2302 48.4855 31.834 49.0057 32.23 49.674C32.3771 49.5432 32.5617 49.4621 32.7575 49.4422C32.9533 49.4222 33.1505 49.4643 33.321 49.5627L37.3276 51.8759C37.8182 52.1473 38.3958 52.2152 38.936 52.0651C39.4761 51.9151 39.9359 51.559 40.2162 51.0735C40.4966 50.588 40.5752 50.0118 40.4352 49.4689C40.2952 48.926 39.9477 48.4598 39.4675 48.1705L33.5061 44.7287C33.3995 44.6671 33.306 44.5852 33.231 44.4875C33.1561 44.3898 33.1011 44.2783 33.0692 44.1594C33.0373 44.0404 33.0292 43.9164 33.0452 43.7943C33.0613 43.6722 33.1012 43.5545 33.1628 43.4478C33.2243 43.3412 33.3063 43.2477 33.404 43.1727C33.5017 43.0977 33.6132 43.0427 33.7321 43.0109C33.851 42.979 33.9751 42.9708 34.0972 42.9869C34.2193 43.003 34.337 43.0429 34.4436 43.1045L40.4132 46.5521C40.9061 46.8356 41.4914 46.9116 42.0404 46.7635C42.5894 46.6153 43.0571 46.2552 43.3405 45.7623C43.624 45.2693 43.7 44.684 43.5519 44.135C43.4037 43.586 43.0436 43.1184 42.5507 42.8349L34.7718 38.3466C34.6651 38.2851 34.5716 38.2031 34.4967 38.1054C34.4217 38.0078 34.3667 37.8963 34.3348 37.7773C34.3029 37.6584 34.2948 37.5343 34.3108 37.4123C34.3269 37.2902 34.3668 37.1724 34.4284 37.0658C34.49 36.9591 34.5719 36.8657 34.6696 36.7907C34.7673 36.7157 34.8788 36.6607 34.9977 36.6288C35.1167 36.597 35.2407 36.5888 35.3628 36.6049C35.4849 36.6209 35.6026 36.6609 35.7093 36.7224L43.4823 41.2107C43.9736 41.494 44.5573 41.5707 45.1051 41.4239C45.6528 41.2771 46.12 40.9189 46.4038 40.4279L46.4097 40.4291ZM37.1776 56.4158C36.8936 56.9065 36.4265 57.2646 35.8788 57.4113C35.3311 57.5581 34.7475 57.4816 34.2561 57.1986L31.0569 55.3517L32.2557 53.2705C32.5872 52.6966 32.7516 52.0415 32.7304 51.3791L36.3925 53.4884C36.884 53.7732 37.2426 54.2412 37.3898 54.7899C37.537 55.3386 37.4607 55.9233 37.1776 56.4158ZM26.2557 56.533C25.8695 56.3074 25.5878 55.9385 25.472 55.5065C25.3561 55.0744 25.4154 54.6141 25.637 54.2256L27.7065 50.6408C27.8175 50.4484 27.9652 50.2798 28.1414 50.1445C28.3175 50.0093 28.5185 49.91 28.733 49.8525C28.9475 49.7949 29.1712 49.7801 29.3914 49.809C29.6116 49.8379 29.8239 49.9099 30.0163 50.0209C30.2087 50.1318 30.3773 50.2796 30.5125 50.4557C30.6478 50.6318 30.7471 50.8329 30.8046 51.0474C30.8622 51.2618 30.8769 51.4856 30.848 51.7057C30.8192 51.9259 30.7472 52.1383 30.6362 52.3306L28.9675 55.2216L28.569 55.9119C28.3448 56.2999 27.9756 56.583 27.5428 56.699C27.1099 56.815 26.6487 56.7545 26.2604 56.5306L26.2557 56.533ZM23.3565 54.4236C23.2456 54.616 23.0978 54.7846 22.9217 54.9199C22.7456 55.0551 22.5445 55.1544 22.33 55.2119C22.1156 55.2695 21.8918 55.2843 21.6716 55.2554C21.4515 55.2265 21.2391 55.1545 21.0468 55.0435C20.8544 54.9326 20.6858 54.7848 20.5505 54.6087C20.4152 54.4326 20.316 54.2315 20.2584 54.017C20.2009 53.8026 20.1861 53.5788 20.215 53.3586C20.2439 53.1385 20.3159 52.9261 20.4268 52.7338L23.155 48.0099C23.3786 47.6214 23.7474 47.3377 24.1802 47.2211C24.6131 47.1045 25.0745 47.1646 25.463 47.3883C25.8515 47.6119 26.1352 47.9807 26.2518 48.4135C26.3684 48.8463 26.3083 49.3078 26.0847 49.6963L24.0151 53.281L23.3577 54.4201L23.3565 54.4236ZM18.8038 51.7998L18.4768 52.367C18.2528 52.7555 17.8835 53.039 17.4503 53.1553C17.0172 53.2715 16.5556 53.211 16.1671 52.9869C15.7786 52.7628 15.495 52.3936 15.3787 51.9604C15.2625 51.5272 15.3231 51.0656 15.5472 50.6771L18.6046 45.3826C18.8287 44.9941 19.1979 44.7105 19.6311 44.5943C20.0642 44.478 20.5258 44.5386 20.9143 44.7627C21.3028 44.9868 21.5864 45.356 21.7027 45.7892C21.8189 46.2223 21.7583 46.6839 21.5343 47.0724L18.8073 51.7963L18.8038 51.7998ZM13.9241 49.749L13.5972 50.315C13.4862 50.5074 13.3384 50.676 13.1623 50.8113C12.9862 50.9465 12.7851 51.0458 12.5707 51.1033C12.3562 51.1609 12.1325 51.1757 11.9123 51.1468C11.6921 51.1179 11.4798 51.0459 11.2874 50.9349C11.095 50.824 10.9264 50.6762 10.7911 50.5001C10.6559 50.324 10.5566 50.1229 10.4991 49.9084C10.4415 49.694 10.4267 49.4702 10.4556 49.2501C10.4845 49.0299 10.5565 48.8175 10.6675 48.6252L14.053 42.7658C14.164 42.5734 14.3117 42.4048 14.4879 42.2695C14.664 42.1343 14.865 42.035 15.0795 41.9775C15.294 41.9199 15.5177 41.9051 15.7379 41.934C15.9581 41.9629 16.1704 42.0349 16.3628 42.1459C16.5551 42.2568 16.7238 42.4046 16.859 42.5807C16.9943 42.7568 17.0935 42.9579 17.1511 43.1724C17.2087 43.3868 17.2234 43.6106 17.1945 43.8307C17.1656 44.0509 17.0937 44.2633 16.9827 44.4556L13.9264 49.749H13.9241ZM8.78778 38.3912L3.16278 35.1427L10.9757 21.6064L16.6007 24.8549L8.78778 38.3912ZM16.2397 3.1072V22.4818L18.0632 23.5365C21.4018 23.0677 24.8097 23.8881 27.1124 24.6767C27.1525 24.6901 27.1916 24.7062 27.2296 24.7248C27.6006 24.442 28.0176 24.2256 28.4624 24.0849C28.6124 24.0369 28.7319 24.0029 28.8397 23.9677C29.065 23.9106 29.2844 23.8321 29.4948 23.7334C33.1065 22.0693 38.53 21.4857 42.178 21.6357L44.053 20.5552V9.25954H39.321C39.0723 9.25954 38.8339 9.16077 38.6581 8.98495C38.4823 8.80914 38.3835 8.57068 38.3835 8.32204V3.10837L16.2397 3.1072ZM40.255 4.57204L42.8448 7.38454H40.255V4.57204ZM59.0319 32.7568L50.6636 18.2642C50.4881 17.9608 50.1993 17.7394 49.8608 17.6486C49.5222 17.5579 49.1614 17.6052 48.8577 17.7802L45.928 19.4736V8.32204C45.928 8.29157 45.928 8.2611 45.928 8.23063C45.928 8.20017 45.928 8.20251 45.9222 8.18962L45.9151 8.14157C45.9151 8.12517 45.9069 8.10876 45.9034 8.09235C45.8999 8.07595 45.8975 8.06774 45.894 8.05603L45.8764 8.00563C45.8764 7.99392 45.8682 7.98337 45.8647 7.97165L45.8436 7.92478C45.8378 7.91306 45.8331 7.90134 45.8272 7.89079L45.8026 7.84743C45.7956 7.83571 45.7897 7.82517 45.7815 7.81345L45.7557 7.77478L45.73 7.74079C45.7208 7.72893 45.7111 7.71759 45.7007 7.70681C45.6959 7.69966 45.6904 7.69299 45.6843 7.68688L40.0182 1.53454L40.0054 1.52282C39.9936 1.50993 39.9807 1.49704 39.9679 1.48532L39.9374 1.45837C39.9233 1.44548 39.9093 1.43493 39.894 1.42321L39.8636 1.40095C39.8472 1.38923 39.8296 1.37868 39.812 1.36813L39.778 1.35056L39.7147 1.31892L39.6936 1.30954C39.6686 1.29786 39.6428 1.28807 39.6163 1.28024H39.6057L39.5179 1.25681C39.4877 1.25001 39.4572 1.24492 39.4264 1.24157C39.3941 1.23979 39.3616 1.23979 39.3292 1.24157H16.0991C15.6402 1.24219 15.2004 1.42475 14.8759 1.74921C14.5514 2.07368 14.3689 2.51357 14.3682 2.97243V21.399L11.4386 19.7056C11.1346 19.5309 10.7738 19.4837 10.4351 19.5744C10.0964 19.6651 9.80746 19.8863 9.63153 20.1896L1.26082 34.6834C1.08608 34.9873 1.03889 35.3482 1.1296 35.6868C1.22031 36.0255 1.44153 36.3145 1.74481 36.4904L8.58387 40.4408C9.65796 41.3868 10.5884 42.4842 11.346 43.6986L9.05262 47.6877C8.6729 48.3447 8.51285 49.1058 8.59577 49.8602C8.67869 50.6145 9.00025 51.3227 9.51363 51.8816C10.027 52.4405 10.7054 52.8209 11.45 52.9674C12.1946 53.1139 12.9665 53.0189 13.6534 52.6963C13.8181 53.1671 14.0796 53.5983 14.4211 53.9619C14.7626 54.3255 15.1766 54.6134 15.6362 54.8072C16.0959 55.001 16.5911 55.0963 17.0898 55.0869C17.5886 55.0776 18.0798 54.9638 18.5319 54.7529C18.7113 55.2654 19.0051 55.7303 19.3911 56.1122C19.7771 56.4941 20.2451 56.783 20.7595 56.9569C21.2739 57.1307 21.8212 57.185 22.3598 57.1157C22.8983 57.0463 23.4139 56.855 23.8675 56.5564C24.1506 57.1762 24.6057 57.7017 25.1785 58.0706C25.7514 58.4395 26.4181 58.6363 27.0995 58.6377C27.7025 58.6376 28.2957 58.4848 28.8237 58.1937C29.3518 57.9025 29.7975 57.4823 30.1194 56.9724L33.3233 58.8228C34.0106 59.2206 34.8005 59.4053 35.5929 59.3537C36.3852 59.302 37.1445 59.0163 37.7743 58.5327C38.4041 58.0491 38.8762 57.3894 39.1307 56.6372C39.3852 55.8851 39.4106 55.0742 39.2038 54.3076C39.1733 54.1904 39.137 54.0791 39.0972 53.9677C39.2136 53.9482 39.3307 53.9224 39.4487 53.8904C39.958 53.7552 40.4356 53.5208 40.8541 53.2005C41.2725 52.8802 41.6235 52.4803 41.8869 52.024C42.1504 51.5676 42.321 51.0636 42.3891 50.5411C42.4571 50.0185 42.4212 49.4877 42.2835 48.9791C42.253 48.8619 42.2179 48.7517 42.178 48.6404C42.7563 48.54 43.3055 48.3138 43.7868 47.9778C44.268 47.6419 44.6696 47.2043 44.9631 46.696C45.2567 46.1877 45.435 45.6212 45.4855 45.0364C45.536 44.4517 45.4574 43.8629 45.2554 43.3119C45.8336 43.2113 46.3827 42.9849 46.8638 42.6488C47.3449 42.3126 47.7464 41.8749 48.0397 41.3666C48.1423 41.1888 48.2312 41.0035 48.3057 40.8123C48.8847 40.5322 49.419 40.0552 49.9405 39.59C50.3038 39.2654 50.9132 38.7216 51.1499 38.683C51.3211 38.687 51.4901 38.644 51.6386 38.5588L58.5526 34.565C58.8554 34.3883 59.0759 34.0988 59.1657 33.7599C59.2555 33.421 59.2074 33.0603 59.0319 32.7568Z" fill="#242222"/>
</svg>
