<svg width="61" height="61" viewBox="0 0 61 61" fill="none" xmlns="http://www.w3.org/2000/svg">
<path fill-rule="evenodd" clip-rule="evenodd" d="M42.7123 2.41162H10.9574L2.41974 10.9493V53.7461C2.41974 54.3915 2.94615 54.9179 3.59161 54.9179H42.7123C43.3578 54.9179 43.8842 54.3915 43.8842 53.7461V3.5835C43.8842 2.93803 43.3578 2.41162 42.7123 2.41162Z" fill="#F4F6F8"/>
<path fill-rule="evenodd" clip-rule="evenodd" d="M10.9574 9.77744V2.41162L2.41974 10.9493H9.78556C10.431 10.9493 10.9574 10.4229 10.9574 9.77744Z" fill="#E4E8EB"/>
<path fill-rule="evenodd" clip-rule="evenodd" d="M30.4362 17.0256C28.9009 17.0256 28.1305 18.8856 29.2162 19.9713C29.4161 20.1712 29.4161 20.4955 29.2162 20.6956L28.1136 21.7981C27.9136 21.998 27.5893 21.998 27.3892 21.7981C26.3036 20.7126 24.4436 21.4829 24.4436 23.0182C24.4436 23.3011 24.2143 23.5304 23.9315 23.5304H22.3723C22.0895 23.5304 21.8602 23.3011 21.8602 23.0182C21.8602 21.481 20.0016 20.7112 18.9146 21.7981C18.7146 21.998 18.3903 21.998 18.1902 21.7981L17.0876 20.6956C16.8877 20.4957 16.8877 20.1712 17.0876 19.9713C18.1732 18.8856 17.4029 17.0256 15.8676 17.0256C15.5847 17.0256 15.3555 16.7963 15.3555 16.5135V14.9543C15.3555 14.6716 15.5847 14.4422 15.8676 14.4422C17.4029 14.4422 18.1732 12.5822 17.0876 11.4966C16.8877 11.2966 16.8877 10.9723 17.0876 10.7723L18.1902 9.66965C18.3902 9.46961 18.7145 9.46961 18.9146 9.66965C20.0002 10.7553 21.8602 9.98488 21.8602 8.44961C21.8602 8.16672 22.0895 7.9375 22.3723 7.9375H23.9315C24.2143 7.9375 24.4436 8.16672 24.4436 8.44961C24.4436 9.98488 26.3036 10.7553 27.3892 9.66965C27.5891 9.46961 27.9136 9.46961 28.1136 9.66965L29.2162 10.7723C29.4161 10.9722 29.4161 11.2966 29.2162 11.4966C28.1305 12.5822 28.9009 14.4422 30.4362 14.4422C30.7191 14.4422 30.9483 14.6716 30.9483 14.9543V16.5135C30.9483 16.7963 30.7192 17.0256 30.4362 17.0256ZM23.152 11.9879C21.0831 11.9879 19.4059 13.665 19.4059 15.7339C19.4059 17.8027 21.0831 19.4799 23.152 19.4799C25.2208 19.4799 26.898 17.8027 26.898 15.7339C26.898 13.665 25.2208 11.9879 23.152 11.9879Z" fill="#FDCD56"/>
<path fill-rule="evenodd" clip-rule="evenodd" d="M43.4705 45.616L45.6141 43.4723L49.7518 47.61L47.6081 49.7537L43.4705 45.616Z" fill="#A9B0BB"/>
<path d="M45.447 45.4469C49.6831 41.2109 49.6831 34.3428 45.447 30.1068C41.211 25.8707 34.343 25.8707 30.1069 30.1068C25.8708 34.3429 25.8708 41.2109 30.1069 45.4469C34.343 49.683 41.211 49.683 45.447 45.4469Z" fill="#A9B0BB"/>
<path d="M45.2489 39.5598C46.2233 35.4375 43.6715 31.3058 39.5492 30.3313C35.4269 29.3569 31.2952 31.9087 30.3207 36.031C29.3463 40.1533 31.8981 44.2851 36.0204 45.2595C40.1427 46.2339 44.2744 43.6821 45.2489 39.5598Z" fill="#A4D4FF"/>
<path fill-rule="evenodd" clip-rule="evenodd" d="M47.1296 48.7597L48.7679 47.1215C49.309 46.5803 50.1944 46.5803 50.7356 47.1215L58.2639 54.6498C58.8051 55.191 58.8051 56.0763 58.2639 56.6175L56.6256 58.2558C56.0845 58.797 55.1991 58.797 54.6579 58.2558L47.1296 50.7274C46.5884 50.1863 46.5884 49.3008 47.1296 48.7597Z" fill="#937661"/>
<path fill-rule="evenodd" clip-rule="evenodd" d="M57.6841 56.038L56.0458 57.6763C55.9394 57.7827 55.7949 57.8412 55.6416 57.8412C55.4883 57.8412 55.345 57.7827 55.2385 57.6763L47.7093 50.1482C47.6023 50.0401 47.5438 49.8973 47.5438 49.7434C47.5438 49.5901 47.6023 49.4473 47.7093 49.3392L49.3488 47.7009C49.459 47.5901 49.6052 47.535 49.7519 47.535C49.898 47.535 50.0447 47.5902 50.1561 47.7009L57.6842 55.2301C57.7906 55.3371 57.8497 55.48 57.8497 55.6337C57.8495 55.787 57.7905 55.931 57.6841 56.038ZM3.23993 54.0969V11.7704H10.9577C11.4104 11.7704 11.7782 11.4026 11.7782 10.9499V3.23204H43.064V27.3714C41.4781 26.5641 39.6837 26.108 37.7841 26.108C35.1102 26.108 32.642 27.0129 30.6724 28.5326H8.05669C7.604 28.5326 7.23615 28.9004 7.23615 29.3531C7.23615 29.8064 7.604 30.1731 8.05669 30.1731H28.9404C27.902 31.3791 27.1063 32.7984 26.6283 34.3556H8.05669C7.604 34.3556 7.23615 34.7234 7.23615 35.1756C7.23615 35.6295 7.604 35.9961 8.05669 35.9961H26.251C26.1617 36.5774 26.1159 37.1718 26.1159 37.7767C26.1159 38.5999 26.2013 39.404 26.3645 40.1787H8.05669C7.604 40.1787 7.23615 40.5464 7.23615 40.9992C7.23615 41.4525 7.604 41.8192 8.05669 41.8192H26.8383C28.4872 46.2676 32.7712 49.446 37.7842 49.446C39.684 49.446 41.4782 48.99 43.0641 48.1815V54.0967H3.23993V54.0969ZM10.1377 4.39231L4.40021 10.1293H10.1377V4.39231ZM47.8135 37.7768C47.8135 32.2477 43.3144 27.7485 37.7841 27.7485C32.2556 27.7485 27.757 32.2475 27.757 37.7768C27.757 43.3065 32.2556 47.8056 37.7841 47.8056C43.3144 47.8057 47.8135 43.3065 47.8135 37.7768ZM47.8604 46.8694L46.5088 45.5167C46.2011 45.8646 45.8725 46.1927 45.5246 46.5009L46.8772 47.852L47.8604 46.8694ZM58.8443 54.0704L51.3162 46.5407C50.7598 45.9853 49.979 45.7896 49.2627 45.9518L47.5181 44.2065C48.7406 42.3608 49.4541 40.1508 49.4541 37.7768C49.4541 33.9306 47.5837 30.5145 44.7046 28.3876V2.41161C44.7046 1.95833 44.3374 1.59106 43.8841 1.59106H10.9577C10.7398 1.59106 10.5315 1.67813 10.3776 1.83153L1.8399 10.3698C1.68603 10.5231 1.59943 10.732 1.59943 10.9499V54.9175C1.59943 55.3713 1.96716 55.738 2.41997 55.738H43.8841C44.3374 55.738 44.7046 55.3713 44.7046 54.9175V47.9998L45.9597 49.2549C45.9233 49.4131 45.9035 49.5775 45.9035 49.7434C45.9035 50.3357 46.1328 50.8909 46.5503 51.3083L54.0785 58.8365C54.4942 59.2522 55.0501 59.4822 55.6417 59.4822C56.2334 59.4822 56.7892 59.2522 57.2062 58.8365L58.8445 57.1982C59.2608 56.7808 59.4902 56.2255 59.4902 55.6337C59.4901 55.0416 59.2606 54.4862 58.8443 54.0704ZM44.6368 37.7768C44.6368 33.9995 41.5625 30.9259 37.7841 30.9259C34.0074 30.9259 30.9337 33.9995 30.9337 37.7768C30.9337 41.5547 34.0073 44.6272 37.7841 44.6272C41.5625 44.6272 44.6368 41.5547 44.6368 37.7768ZM29.2933 37.7768C29.2933 42.459 33.1031 46.2677 37.7841 46.2677C42.4674 46.2677 46.2772 42.459 46.2772 37.7768C46.2772 33.0947 42.4674 29.2848 37.7841 29.2848C33.1031 29.2848 29.2933 33.0947 29.2933 37.7768ZM23.1526 12.8087C21.5391 12.8087 20.2261 14.1211 20.2261 15.7335C20.2261 17.3469 21.5391 18.6599 23.1526 18.6599C24.7649 18.6599 26.0773 17.3469 26.0773 15.7335C26.0773 14.1212 24.7649 12.8087 23.1526 12.8087ZM23.1526 20.3005C25.6699 20.3005 27.7178 18.252 27.7178 15.7336C27.7178 13.2163 25.6699 11.1677 23.1526 11.1677C20.6342 11.1677 18.5856 13.2163 18.5856 15.7336C18.5856 18.252 20.6342 20.3005 23.1526 20.3005ZM16.1765 15.2449V16.2231C17.0902 16.3289 17.8567 16.9041 18.219 17.777C18.5801 18.6504 18.445 19.5995 17.8733 20.3213L18.5648 21.0128C19.2865 20.4409 20.2356 20.3047 21.1086 20.6659C21.982 21.0277 22.5571 21.7942 22.6625 22.7095H23.6412C23.7466 21.7958 24.3223 21.0293 25.1951 20.6671C26.0681 20.3059 27.0176 20.441 27.7394 21.0128L28.4309 20.3213C27.8586 19.5995 27.724 18.6504 28.0863 17.777C28.4468 16.9041 29.2134 16.3289 30.1287 16.2231V15.2449C29.2134 15.1396 28.4468 14.564 28.0863 13.691C27.7239 12.8181 27.8586 11.8685 28.4309 11.1468L27.7394 10.4552C27.0175 11.0276 26.0697 11.1621 25.1951 10.7999C24.3222 10.4392 23.7466 9.6722 23.6412 8.75849H22.6625C22.5572 9.6722 21.982 10.4392 21.1086 10.7999C20.2356 11.1621 19.2867 11.0276 18.5648 10.4552L17.8733 11.1468C18.445 11.8686 18.5801 12.8165 18.219 13.691C17.8566 14.564 17.0902 15.1397 16.1765 15.2449ZM15.8682 17.8466C16.4274 17.8466 16.6485 18.274 16.7024 18.4051C16.7576 18.5364 16.9038 18.9958 16.5078 19.391C16.2558 19.643 16.1179 19.9778 16.1179 20.3329C16.1179 20.6891 16.2557 21.0244 16.5078 21.2753L17.6106 22.3781C18.13 22.897 18.9748 22.897 19.4949 22.3781C19.8913 21.9822 20.3501 22.1283 20.4803 22.1823C20.6122 22.2358 21.0394 22.4575 21.0394 23.0177C21.0394 23.7523 21.6372 24.3499 22.3716 24.3499H23.9316C24.6661 24.3499 25.2638 23.7522 25.2638 23.0177C25.2638 22.4585 25.6918 22.2375 25.823 22.1835C25.9543 22.1283 26.4135 21.9823 26.8101 22.3781C27.329 22.8981 28.1738 22.897 28.6932 22.3781L29.7954 21.2753C30.0475 21.0244 30.1859 20.6891 30.1859 20.3329C30.1859 19.9778 30.0475 19.643 29.7954 19.391C29.4006 18.9956 29.5474 18.5363 29.6014 18.4051C29.6548 18.2739 29.8765 17.8466 30.4368 17.8466C31.1702 17.8466 31.7691 17.2488 31.7691 16.5143V14.9543C31.7691 14.2193 31.1703 13.6221 30.4368 13.6221C29.8765 13.6221 29.6548 13.1941 29.6014 13.0629C29.5474 12.9317 29.4006 12.4724 29.7954 12.0769C30.0475 11.8254 30.1859 11.4901 30.1859 11.135C30.1859 10.7788 30.0475 10.4435 29.7954 10.1926L28.6932 9.09036C28.1738 8.57087 27.3289 8.56981 26.8089 9.09036C26.4135 9.48517 25.9542 9.33856 25.823 9.28442C25.6918 9.2304 25.2638 9.00927 25.2638 8.45017C25.2638 7.71563 24.666 7.11786 23.9316 7.11786H22.3716C21.6371 7.11786 21.0394 7.71563 21.0394 8.45017C21.0394 9.00927 20.612 9.2304 20.4803 9.28442C20.3497 9.33845 19.8897 9.48517 19.4949 9.09036C18.9749 8.56981 18.1301 8.56981 17.6106 9.09036L16.5078 10.1926C16.2558 10.4435 16.1179 10.7788 16.1179 11.135C16.1179 11.4901 16.2557 11.8254 16.5078 12.0769C16.9038 12.4723 16.7576 12.9317 16.7024 13.0629C16.6484 13.1941 16.4273 13.6221 15.8682 13.6221C15.1336 13.6221 14.536 14.2193 14.536 14.9543V16.5143C14.536 17.2488 15.1336 17.8466 15.8682 17.8466Z" fill="black"/>
</svg>
