<svg width="61" height="61" viewBox="0 0 61 61" fill="none" xmlns="http://www.w3.org/2000/svg">
<g clip-path="url(#clip0_50_473)">
<path d="M32.5838 12.3709L40.8572 25.6084H32.4197L28.5994 17.9678C28.3314 17.4316 27.9389 16.9675 27.4546 16.6144C26.9703 16.2613 26.4084 16.0293 25.816 15.9381L13.6697 14.3584V10.6084H29.4038C30.0398 10.6084 30.6654 10.7702 31.2217 11.0785C31.778 11.3868 32.2467 11.8316 32.5838 12.3709Z" fill="#F8C460"/>
<path d="M13.6697 14.3584L17.701 14.8825L17.8604 13.3937C17.9621 12.4106 17.7109 11.4233 17.1516 10.6084H13.6697V14.3584Z" fill="#FAAF42"/>
<path d="M9.91975 34.9834H13.6697L15.9826 13.3946C16.0457 12.807 15.9845 12.2126 15.8028 11.6502C15.6211 11.0877 15.3231 10.5699 14.9281 10.1302C14.5331 9.69052 14.0499 9.33893 13.5101 9.09828C12.9702 8.85763 12.3858 8.7333 11.7947 8.7334C11.2037 8.7333 10.6193 8.85763 10.0794 9.09828C9.53958 9.33893 9.05644 9.69052 8.66143 10.1302C8.26643 10.5699 7.96839 11.0877 7.78671 11.6502C7.60503 12.2126 7.54378 12.807 7.60694 13.3946L9.91975 34.9834Z" fill="#F8C460"/>
<path d="M11.7947 31.2334C11.3793 31.2346 10.9694 31.3284 10.5948 31.5079C10.2202 31.6874 9.89028 31.9482 9.62909 32.2712L9.91971 34.9834H13.6697L13.9603 32.2712C13.6991 31.9482 13.3693 31.6874 12.9946 31.5079C12.62 31.3284 12.2101 31.2346 11.7947 31.2334Z" fill="#FAAF42"/>
<path d="M30.5447 51.8584H54.9197C57.5086 51.8584 59.6072 49.7597 59.6072 47.1709C59.6072 44.5821 57.5086 42.4834 54.9197 42.4834H30.5447C27.9559 42.4834 25.8572 44.5821 25.8572 47.1709C25.8572 49.7597 27.9559 51.8584 30.5447 51.8584Z" fill="#7A838B"/>
<path d="M57.7322 49.0459H33.3572C32.114 49.0459 30.9217 48.5521 30.0427 47.673C29.1636 46.7939 28.6697 45.6016 28.6697 44.3584C28.6747 43.8182 28.774 43.2829 28.9632 42.7769C27.9238 43.1469 27.0487 43.8726 26.4927 44.8256C25.9367 45.7786 25.7355 46.8975 25.9248 47.9845C26.1141 49.0715 26.6817 50.0565 27.5271 50.7654C28.3725 51.4743 29.4414 51.8615 30.5447 51.8584H54.9197C55.8829 51.8565 56.822 51.5571 57.6085 51.0011C58.395 50.4452 58.9906 49.6598 59.3138 48.7525C58.8077 48.9417 58.2725 49.041 57.7322 49.0459Z" fill="#5D6972"/>
<path d="M30.5447 49.0459H54.9197C55.9553 49.0459 56.7947 48.2064 56.7947 47.1709C56.7947 46.1354 55.9553 45.2959 54.9197 45.2959H30.5447C29.5092 45.2959 28.6697 46.1354 28.6697 47.1709C28.6697 48.2064 29.5092 49.0459 30.5447 49.0459Z" fill="#E6E6E6"/>
<path d="M56.7947 47.1709H28.6697C28.6697 46.6736 28.8673 46.1967 29.2189 45.8451C29.5705 45.4934 30.0475 45.2959 30.5447 45.2959H54.9197C55.417 45.2959 55.8939 45.4934 56.2456 45.8451C56.5972 46.1967 56.7947 46.6736 56.7947 47.1709Z" fill="#CECECE"/>
<path d="M52.1072 42.4834H33.3572V38.7334H52.1072V42.4834Z" fill="#E6E6E6"/>
<path d="M52.1072 40.6084H33.3572V38.7334H52.1072V40.6084Z" fill="#CECECE"/>
<path d="M32.4197 25.6084H40.8572L36.1697 18.1084H32.2416C31.7768 18.1084 31.3285 18.281 30.9838 18.5929C30.6391 18.9047 30.4225 19.3334 30.376 19.7959L30.2325 21.2321L32.4197 25.6084Z" fill="#FAAF42"/>
<path d="M43.9716 21.4909L45.2429 27.8509C45.3278 28.2761 45.5576 28.6587 45.893 28.9336C46.2283 29.2084 46.6486 29.3586 47.0822 29.3584H54.3197C54.7533 29.3582 55.1736 29.5084 55.509 29.7832C55.8444 30.0581 56.0741 30.4407 56.1591 30.8659L57.2841 36.4909C57.3385 36.763 57.3318 37.0437 57.2645 37.3129C57.1973 37.5821 57.0711 37.833 56.8952 38.0475C56.7192 38.262 56.4978 38.4348 56.247 38.5534C55.9962 38.672 55.7222 38.7335 55.4447 38.7334H31.6791C31.4171 38.7334 31.1579 38.6785 30.9184 38.5722C30.6789 38.4659 30.4643 38.3105 30.2885 38.1162C30.1128 37.9219 29.9797 37.6928 29.8978 37.4439C29.816 37.195 29.7873 36.9316 29.8135 36.6709L31.3135 21.6709C31.36 21.2084 31.5766 20.7797 31.9213 20.4679C32.266 20.156 32.7143 19.9834 33.1791 19.9834H42.1322C42.5658 19.9832 42.9861 20.1334 43.3215 20.4082C43.6569 20.6831 43.8866 21.0657 43.9716 21.4909Z" fill="#F8C460"/>
<path d="M57.1697 35.9209H40.7072C39.6591 35.9209 38.6225 35.7012 37.6645 35.276C36.7064 34.8508 35.8482 34.2294 35.145 33.4521C34.4419 32.6747 33.9095 31.7586 33.5822 30.7629C33.2549 29.7671 33.1399 28.7138 33.2447 27.6709L34.0135 19.9834H33.1791C32.7143 19.9834 32.266 20.156 31.9213 20.4679C31.5766 20.7797 31.36 21.2084 31.3135 21.6709L29.8135 36.6709C29.7873 36.9316 29.816 37.195 29.8978 37.4439C29.9797 37.6928 30.1128 37.9219 30.2885 38.1162C30.4643 38.3105 30.6789 38.4659 30.9184 38.5722C31.1579 38.6785 31.4171 38.7334 31.6791 38.7334H55.4447C55.7222 38.7335 55.9962 38.672 56.247 38.5534C56.4978 38.4348 56.7192 38.262 56.8952 38.0475C57.0711 37.833 57.1973 37.5821 57.2645 37.3129C57.3318 37.0437 57.3385 36.763 57.2841 36.4909L57.1697 35.9209Z" fill="#FAAF42"/>
<path d="M30.5447 49.0459C31.5803 49.0459 32.4197 48.2064 32.4197 47.1709C32.4197 46.1354 31.5803 45.2959 30.5447 45.2959C29.5092 45.2959 28.6697 46.1354 28.6697 47.1709C28.6697 48.2064 29.5092 49.0459 30.5447 49.0459Z" fill="#F8C460"/>
<path d="M54.9197 49.0459C55.9553 49.0459 56.7947 48.2064 56.7947 47.1709C56.7947 46.1354 55.9553 45.2959 54.9197 45.2959C53.8842 45.2959 53.0447 46.1354 53.0447 47.1709C53.0447 48.2064 53.8842 49.0459 54.9197 49.0459Z" fill="#F8C460"/>
<path d="M34.2947 22.7959H40.8572L42.7322 33.1084H33.3572L34.2947 22.7959Z" fill="#A7D0E1"/>
<path d="M36.5447 26.2065L36.8513 22.7959H34.2947L33.3572 33.1084H42.7322L42.2213 30.2959H40.276C39.7552 30.2954 39.2402 30.1865 38.7639 29.976C38.2875 29.7656 37.8602 29.4582 37.5092 29.0735C37.1582 28.6888 36.8911 28.2352 36.7251 27.7416C36.559 27.2479 36.4976 26.7252 36.5447 26.2065Z" fill="#80BBCE"/>
<path d="M14.6072 38.7334H8.98224V35.9209C8.98224 35.175 9.27855 34.4596 9.806 33.9322C10.3334 33.4047 11.0488 33.1084 11.7947 33.1084C12.5407 33.1084 13.256 33.4047 13.7835 33.9322C14.3109 34.4596 14.6072 35.175 14.6072 35.9209V38.7334Z" fill="#E6E6E6"/>
<path d="M11.7947 33.1084C11.0488 33.1084 10.3334 33.4047 9.806 33.9322C9.27855 34.4596 8.98224 35.175 8.98224 35.9209V38.7334H14.6072V35.9209H13.6697C13.1725 35.9209 12.6955 35.7234 12.3439 35.3717C11.9923 35.0201 11.7947 34.5432 11.7947 34.0459V33.1084Z" fill="#CECECE"/>
<path d="M8.04474 51.8584H18.3572V50.9209C18.3572 50.6298 18.2895 50.3427 18.1593 50.0824C18.0291 49.822 17.8401 49.5956 17.6072 49.4209L14.6072 47.1709V38.7334H8.04474C6.30426 38.7334 4.63506 39.4248 3.40435 40.6555C2.17364 41.8862 1.48224 43.5554 1.48224 45.2959C1.48224 47.0364 2.17364 48.7056 3.40435 49.9363C4.63506 51.167 6.30426 51.8584 8.04474 51.8584Z" fill="#7A838B"/>
<path d="M17.6072 49.4208L17.1075 49.0458H10.8572C9.73081 49.047 8.62312 48.7578 7.64095 48.2064C6.65879 47.6549 5.83527 46.8597 5.24982 45.8974C4.66438 44.9351 4.33674 43.8381 4.29852 42.7124C4.26029 41.5866 4.51277 40.47 5.03159 39.4702C3.72726 40.1467 2.68768 41.2413 2.07933 42.5787C1.47099 43.9162 1.32908 45.4191 1.67633 46.8468C2.02358 48.2745 2.8399 49.5443 3.99456 50.453C5.14922 51.3616 6.57541 51.8565 8.04472 51.8583H18.3572V50.9208C18.3572 50.6298 18.2894 50.3427 18.1593 50.0823C18.0291 49.822 17.8401 49.5955 17.6072 49.4208Z" fill="#5D6972"/>
<path d="M10.8572 17.1709C11.8928 17.1709 12.7322 16.3314 12.7322 15.2959C12.7322 14.2604 11.8928 13.4209 10.8572 13.4209C9.8217 13.4209 8.98224 14.2604 8.98224 15.2959C8.98224 16.3314 9.8217 17.1709 10.8572 17.1709Z" fill="#FAAF42"/>
<path d="M11.7947 15.2959C12.8303 15.2959 13.6697 14.4564 13.6697 13.4209C13.6697 12.3854 12.8303 11.5459 11.7947 11.5459C10.7592 11.5459 9.91974 12.3854 9.91974 13.4209C9.91974 14.4564 10.7592 15.2959 11.7947 15.2959Z" fill="#E6E6E6"/>
<path d="M54.9197 41.5458H53.0447V39.6708H55.4457C55.8615 39.6704 56.2721 39.5778 56.6479 39.3997C57.0237 39.2215 57.3553 38.9622 57.6188 38.6405C57.8823 38.3188 58.0712 37.9427 58.1719 37.5392C58.2726 37.1357 58.2825 36.7149 58.201 36.3071L57.076 30.6821C56.9473 30.0454 56.6027 29.4726 56.1005 29.0606C55.5983 28.6486 54.9693 28.4226 54.3197 28.4208H47.0822C46.866 28.4211 46.6562 28.3466 46.4886 28.2099C46.321 28.0732 46.2058 27.8827 46.1626 27.6708L44.8885 21.3071C44.7598 20.6704 44.4152 20.0976 43.913 19.6856C43.4108 19.2736 42.7818 19.0476 42.1322 19.0458H37.8572L33.3741 11.874C32.9554 11.1984 32.3707 10.6412 31.6758 10.2556C30.9808 9.8699 30.1986 9.6686 29.4038 9.67083H15.7604C15.7144 9.61551 15.6732 9.55739 15.6254 9.50301C14.8976 8.69289 13.9318 8.13432 12.8667 7.90756C11.8016 7.6808 10.692 7.79754 9.69738 8.24099C8.70277 8.68444 7.87433 9.43177 7.33113 10.3756C6.78792 11.3194 6.5579 12.4112 6.67411 13.494L8.83036 33.6502C8.32442 34.2993 8.04811 35.0979 8.04474 35.9208V37.7958C6.05561 37.7958 4.14796 38.586 2.74144 39.9925C1.33492 41.399 0.544739 43.3067 0.544739 45.2958C0.544739 47.285 1.33492 49.1926 2.74144 50.5991C4.14796 52.0056 6.05561 52.7958 8.04474 52.7958H18.3572C18.6059 52.7958 18.8443 52.6971 19.0202 52.5212C19.196 52.3454 19.2947 52.107 19.2947 51.8583V50.9208C19.2935 50.4844 19.1913 50.0542 18.9961 49.6639C18.801 49.2735 18.5181 48.9337 18.1697 48.6708L15.5447 46.7021V35.9208C15.5414 35.0962 15.264 34.2962 14.7563 33.6465L16.7016 15.4833L25.6735 16.8633C26.118 16.9323 26.5396 17.1069 26.9027 17.3724C27.2658 17.638 27.5599 17.9868 27.7604 18.3896L30.2101 23.288L28.8807 36.5771C28.8414 36.9682 28.8845 37.3632 29.0072 37.7366C29.13 38.11 29.3296 38.4535 29.5933 38.745C29.857 39.0365 30.1788 39.2695 30.5381 39.429C30.8973 39.5884 31.286 39.6708 31.6791 39.6708H32.4197V41.5458H30.5447C29.0529 41.5458 27.6222 42.1385 26.5673 43.1933C25.5124 44.2482 24.9197 45.679 24.9197 47.1708C24.9197 48.6627 25.5124 50.0934 26.5673 51.1483C27.6222 52.2032 29.0529 52.7958 30.5447 52.7958H54.9197C56.4116 52.7958 57.8423 52.2032 58.8972 51.1483C59.9521 50.0934 60.5447 48.6627 60.5447 47.1708C60.5447 45.679 59.9521 44.2482 58.8972 43.1933C57.8423 42.1385 56.4116 41.5458 54.9197 41.5458ZM9.91974 35.9208C9.91974 35.4235 10.1173 34.9466 10.4689 34.595C10.8205 34.2434 11.2975 34.0458 11.7947 34.0458C12.292 34.0458 12.7689 34.2434 13.1206 34.595C13.4722 34.9466 13.6697 35.4235 13.6697 35.9208V37.7958H9.91974V35.9208ZM17.0447 50.1708C17.1608 50.2585 17.255 50.3718 17.3201 50.5019C17.3851 50.632 17.4192 50.7754 17.4197 50.9208H8.04474C6.5529 50.9208 5.12216 50.3282 4.06726 49.2733C3.01237 48.2184 2.41974 46.7877 2.41974 45.2958C2.41974 43.804 3.01237 42.3732 4.06726 41.3183C5.12216 40.2635 6.5529 39.6708 8.04474 39.6708H13.6697V47.1708C13.6697 47.3164 13.7036 47.4599 13.7687 47.5901C13.8338 47.7203 13.9283 47.8335 14.0447 47.9208L17.0447 50.1708ZM15.0516 13.2943L13.0051 32.3893C12.2245 32.098 11.365 32.098 10.5844 32.3893L8.53786 13.2943C8.48875 12.8372 8.53639 12.3749 8.67767 11.9375C8.81896 11.5001 9.05073 11.0973 9.35793 10.7553C9.66512 10.4133 10.0408 10.1398 10.4607 9.95263C10.8805 9.76541 11.3351 9.66866 11.7947 9.66866C12.2544 9.66866 12.709 9.76541 13.1288 9.95263C13.5486 10.1398 13.9244 10.4133 14.2316 10.7553C14.5387 11.0973 14.7705 11.5001 14.9118 11.9375C15.0531 12.3749 15.1007 12.8372 15.0516 13.2943ZM25.9585 15.0146L16.9022 13.6214L16.9154 13.4968C16.9838 12.8415 16.9256 12.1791 16.7438 11.5458H29.4001C29.8774 11.5443 30.3471 11.665 30.7646 11.8964C31.1821 12.1278 31.5334 12.4621 31.7851 12.8677L35.6504 19.0458H33.1791C32.7107 19.0453 32.2497 19.1625 31.8385 19.3868C31.4273 19.6111 31.0791 19.9352 30.826 20.3293L29.4376 17.5458C29.1019 16.8768 28.6109 16.2978 28.0056 15.8575C27.4003 15.4171 26.6984 15.1281 25.9585 15.0146ZM30.9844 37.4902C30.8958 37.3935 30.8287 37.279 30.7876 37.1544C30.7466 37.0298 30.7325 36.8979 30.7463 36.7674L32.2463 21.7674C32.2696 21.5353 32.3786 21.3203 32.5519 21.1643C32.7253 21.0083 32.9506 20.9225 33.1838 20.9236H42.1369C42.3532 20.9234 42.5629 20.9979 42.7305 21.1346C42.8982 21.2713 43.0134 21.4617 43.0566 21.6736L44.326 28.0346C44.4547 28.6713 44.7993 29.244 45.3014 29.656C45.8036 30.068 46.4327 30.294 47.0822 30.2958H54.3197C54.536 30.2956 54.7457 30.3701 54.9134 30.5068C55.081 30.6435 55.1962 30.8339 55.2394 31.0458L56.3644 36.6708C56.3922 36.8071 56.3894 36.9478 56.3561 37.0827C56.3228 37.2177 56.2599 37.3436 56.172 37.4513C56.084 37.559 55.9733 37.6458 55.8476 37.7054C55.722 37.765 55.5847 37.7959 55.4457 37.7958H31.6791C31.5481 37.7965 31.4184 37.7693 31.2987 37.7161C31.1789 37.663 31.0718 37.585 30.9844 37.4874V37.4902ZM34.2947 39.6708H51.1697V41.5458H34.2947V39.6708ZM54.9197 50.9208H30.5447C29.5502 50.9208 28.5963 50.5257 27.8931 49.8225C27.1898 49.1192 26.7947 48.1654 26.7947 47.1708C26.7947 46.1763 27.1898 45.2224 27.8931 44.5192C28.5963 43.8159 29.5502 43.4208 30.5447 43.4208H54.9197C55.9143 43.4208 56.8681 43.8159 57.5714 44.5192C58.2747 45.2224 58.6697 46.1763 58.6697 47.1708C58.6697 48.1654 58.2747 49.1192 57.5714 49.8225C56.8681 50.5257 55.9143 50.9208 54.9197 50.9208Z" fill="black"/>
<path d="M54.9197 44.3584H30.5447C29.7988 44.3584 29.0834 44.6547 28.556 45.1822C28.0286 45.7096 27.7322 46.425 27.7322 47.1709C27.7322 47.9168 28.0286 48.6322 28.556 49.1596C29.0834 49.6871 29.7988 49.9834 30.5447 49.9834H45.5447C45.7934 49.9834 46.0318 49.8846 46.2077 49.7088C46.3835 49.533 46.4822 49.2945 46.4822 49.0459C46.4822 48.7973 46.3835 48.5588 46.2077 48.383C46.0318 48.2072 45.7934 48.1084 45.5447 48.1084H33.1847C33.4148 47.5046 33.4148 46.8372 33.1847 46.2334H52.2797C52.0497 46.8372 52.0497 47.5046 52.2797 48.1084H49.2947C49.0461 48.1084 48.8076 48.2072 48.6318 48.383C48.456 48.5588 48.3572 48.7973 48.3572 49.0459C48.3572 49.2945 48.456 49.533 48.6318 49.7088C48.8076 49.8846 49.0461 49.9834 49.2947 49.9834H54.9197C55.6657 49.9834 56.381 49.6871 56.9085 49.1596C57.4359 48.6322 57.7322 47.9168 57.7322 47.1709C57.7322 46.425 57.4359 45.7096 56.9085 45.1822C56.381 44.6547 55.6657 44.3584 54.9197 44.3584ZM31.4822 47.1709C31.4822 47.3563 31.4273 47.5376 31.3242 47.6917C31.2212 47.8459 31.0748 47.9661 30.9035 48.037C30.7322 48.108 30.5437 48.1266 30.3618 48.0904C30.18 48.0542 30.0129 47.9649 29.8818 47.8338C29.7507 47.7027 29.6614 47.5357 29.6253 47.3538C29.5891 47.1719 29.6076 46.9834 29.6786 46.8121C29.7496 46.6408 29.8697 46.4944 30.0239 46.3914C30.1781 46.2884 30.3593 46.2334 30.5447 46.2334C30.7934 46.2334 31.0318 46.3322 31.2077 46.508C31.3835 46.6838 31.4822 46.9223 31.4822 47.1709ZM54.9197 48.1084C54.7343 48.1084 54.5531 48.0534 54.3989 47.9504C54.2447 47.8474 54.1246 47.701 54.0536 47.5297C53.9826 47.3584 53.9641 47.1699 54.0003 46.988C54.0364 46.8061 54.1257 46.6391 54.2568 46.508C54.3879 46.3769 54.555 46.2876 54.7368 46.2514C54.9187 46.2152 55.1072 46.2338 55.2785 46.3048C55.4498 46.3757 55.5962 46.4959 55.6992 46.6501C55.8023 46.8042 55.8572 46.9855 55.8572 47.1709C55.8572 47.4195 55.7585 47.658 55.5827 47.8338C55.4068 48.0096 55.1684 48.1084 54.9197 48.1084Z" fill="black"/>
<path d="M42.7323 34.0459C42.8695 34.0458 43.0051 34.0156 43.1294 33.9573C43.2536 33.899 43.3636 33.8142 43.4515 33.7088C43.5394 33.6034 43.6031 33.4799 43.6381 33.3472C43.673 33.2145 43.6784 33.0757 43.6538 32.9406L42.9723 29.1906C42.9531 29.0669 42.9093 28.9483 42.8436 28.8418C42.7778 28.7353 42.6914 28.643 42.5894 28.5704C42.4874 28.4978 42.3719 28.4464 42.2497 28.4192C42.1275 28.392 42.0011 28.3895 41.878 28.4119C41.7548 28.4343 41.6374 28.4812 41.5326 28.5497C41.4279 28.6182 41.3379 28.707 41.268 28.8109C41.1981 28.9148 41.1498 29.0316 41.1257 29.1544C41.1017 29.2773 41.1026 29.4037 41.1282 29.5262L41.6073 32.1709H34.3885L35.1554 23.7334H40.0801L40.4551 25.7762C40.4743 25.8999 40.518 26.0186 40.5838 26.1251C40.6495 26.2316 40.736 26.3239 40.838 26.3964C40.9399 26.469 41.0554 26.5204 41.1776 26.5477C41.2998 26.5749 41.4262 26.5774 41.5494 26.5549C41.6725 26.5325 41.79 26.4857 41.8947 26.4172C41.9995 26.3486 42.0894 26.2598 42.1593 26.1559C42.2292 26.0521 42.2776 25.9353 42.3016 25.8124C42.3256 25.6896 42.3248 25.5631 42.2991 25.4406L41.7873 22.6281C41.7477 22.4108 41.6328 22.2145 41.4626 22.0737C41.2925 21.9329 41.0781 21.8566 40.8573 21.8584H34.2948C34.0601 21.8575 33.8336 21.9446 33.66 22.1025C33.4864 22.2605 33.3784 22.4778 33.3573 22.7116L32.4198 33.0241C32.408 33.1541 32.4235 33.2851 32.4654 33.4088C32.5072 33.5324 32.5744 33.646 32.6626 33.7422C32.7509 33.8384 32.8583 33.9151 32.9779 33.9674C33.0975 34.0197 33.2267 34.0465 33.3573 34.0459H42.7323Z" fill="black"/>
<path d="M11.7947 10.6084C11.2385 10.6084 10.6947 10.7733 10.2322 11.0824C9.76969 11.3914 9.4092 11.8307 9.19633 12.3446C8.98346 12.8585 8.92776 13.424 9.03628 13.9696C9.1448 14.5152 9.41267 15.0163 9.806 15.4096C10.1993 15.803 10.7005 16.0708 11.246 16.1794C11.7916 16.2879 12.3571 16.2322 12.871 16.0193C13.385 15.8064 13.8242 15.446 14.1332 14.9834C14.4423 14.5209 14.6072 13.9772 14.6072 13.4209C14.6072 12.675 14.3109 11.9596 13.7835 11.4322C13.256 10.9047 12.5407 10.6084 11.7947 10.6084ZM11.7947 14.3584C11.6093 14.3584 11.4281 14.3034 11.2739 14.2004C11.1197 14.0974 10.9996 13.951 10.9286 13.7797C10.8576 13.6084 10.8391 13.4199 10.8753 13.238C10.9114 13.0561 11.0007 12.8891 11.1318 12.758C11.2629 12.6269 11.43 12.5376 11.6118 12.5014C11.7937 12.4652 11.9822 12.4838 12.1535 12.5548C12.3248 12.6257 12.4712 12.7459 12.5742 12.9001C12.6773 13.0542 12.7322 13.2355 12.7322 13.4209C12.7322 13.6695 12.6335 13.908 12.4577 14.0838C12.2818 14.2596 12.0434 14.3584 11.7947 14.3584Z" fill="black"/>
<path d="M38.9822 25.6084H38.0447C37.7961 25.6084 37.5576 25.5096 37.3818 25.3338C37.206 25.158 37.1072 24.9195 37.1072 24.6709C37.1072 24.4223 37.206 24.1838 37.3818 24.008C37.5576 23.8322 37.7961 23.7334 38.0447 23.7334H38.9822C39.2309 23.7334 39.4693 23.8322 39.6452 24.008C39.821 24.1838 39.9197 24.4223 39.9197 24.6709C39.9197 24.9195 39.821 25.158 39.6452 25.3338C39.4693 25.5096 39.2309 25.6084 38.9822 25.6084Z" fill="white"/>
<path d="M53.9822 32.1709H53.0447C52.7961 32.1709 52.5576 32.0721 52.3818 31.8963C52.206 31.7205 52.1072 31.482 52.1072 31.2334C52.1072 30.9848 52.206 30.7463 52.3818 30.5705C52.5576 30.3947 52.7961 30.2959 53.0447 30.2959H53.9822C54.2309 30.2959 54.4693 30.3947 54.6452 30.5705C54.821 30.7463 54.9197 30.9848 54.9197 31.2334C54.9197 31.482 54.821 31.7205 54.6452 31.8963C54.4693 32.0721 54.2309 32.1709 53.9822 32.1709Z" fill="white"/>
</g>
<defs>
<clipPath id="clip0_50_473">
<rect width="60" height="60" fill="white" transform="translate(0.544739 0.295898)"/>
</clipPath>
</defs>
</svg>
